<svg width="357" height="89" viewBox="0 0 357 89" fill="none" xmlns="http://www.w3.org/2000/svg">
<g clip-path="url(#clip0_48_2930)">
<path d="M40.166 51.3535L66.3803 66.0272L67.3652 54.8661L60.0935 47.1189L49.3418 45.3462L40.166 51.3535Z" fill="#FF4D00"/>
<path d="M44.582 0.635254L66.3807 66.0264L88.1797 44.2293L44.582 0.635254Z" fill="#FF7D00"/>
<path d="M41.0851 35.2686L40.166 51.3537L73.6685 44.2301L41.0851 35.2686Z" fill="#001AFF"/>
<path d="M1 44.2295L24.2761 67.5038L28.6095 61.6933L27.8217 54.7177L17.1357 47.7913L1 44.2295Z" fill="#E23400"/>
<path d="M42.234 2.99854L1 44.2293L27.8218 54.7175L42.234 2.99854Z" fill="#FF4D00"/>
<path d="M27.8218 54.7178L24.2764 67.5038L44.5815 87.8236L63.6881 68.7348L27.8218 54.7178Z" fill="#FF7D00"/>
<path d="M117.202 56.6553H113.131V23.6644L117.202 21.3008V56.6553Z" fill="#373737"/>
<path d="M299.699 27.2759H295.498V24.0426V22.8936H299.699V27.2759Z" fill="#373737"/>
<path d="M135.419 31.231C132.153 31.231 129.559 32.626 127.688 35.367V31.7561H123.699V56.6717H127.688V42.4412C127.688 38.0916 130.462 35.0552 134.418 35.0552C138.374 35.0552 140.607 37.7142 140.607 42.1621V56.6717H144.595V41.2594C144.595 38.3051 143.758 35.8102 142.182 34.0211C140.557 32.1992 138.21 31.231 135.419 31.231Z" fill="#373737"/>
<path d="M176.407 31.231C172.977 31.231 169.825 32.6096 167.494 35.1043C165.229 37.5335 163.981 40.7834 163.981 44.2303V44.3288C163.981 51.5671 169.398 57.2298 176.325 57.2298C179.756 57.2298 182.924 55.8509 185.255 53.3562C187.536 50.9104 188.8 47.6771 188.8 44.2303V44.1317C188.8 36.8934 183.367 31.231 176.407 31.231ZM184.713 44.2303V44.3288C184.713 49.5318 181.135 53.4545 176.407 53.4545C171.68 53.4545 168.052 49.4004 168.052 44.2303V44.1317C168.052 38.896 171.598 34.9566 176.325 34.9566C181.053 34.9566 184.73 39.0271 184.73 44.2303H184.713Z" fill="#373737"/>
<path d="M197.633 37.2208V31.7552H193.645V56.6707H197.633V46.6914C197.633 40.0604 201.162 35.5959 206.612 35.5959H207.137V31.3448H206.891C203.034 31.1643 199.636 33.3472 197.617 37.2372L197.633 37.2208Z" fill="#373737"/>
<path d="M237.965 31.231C234.518 31.231 231.842 32.741 229.79 35.8266C228.264 32.8557 225.604 31.231 222.272 31.231C218.53 31.231 216.412 33.2497 215.001 35.2685V31.7561H211.012V56.6717H215.001V42.4904C215.001 38.1902 217.627 35.0552 221.238 35.0552C224.849 35.0552 226.983 37.6812 226.983 42.0638V56.6717H230.972V42.3593C230.972 40.1434 231.596 38.2721 232.794 36.9592C233.894 35.7446 235.437 35.0716 237.128 35.0716C240.804 35.0716 242.906 37.6648 242.906 42.1785V56.6881H246.894V41.3252C246.894 35.1043 243.481 31.2473 237.981 31.2473L237.965 31.231Z" fill="#373737"/>
<path d="M290.67 35.4643V31.7386H283.187V23.0723L279.197 25.4028V31.755H274.862V35.4809H279.197V49.9411C279.197 56.1617 283.481 57.0808 286.041 57.0808C287.652 57.0808 289.013 56.7362 290.359 56.014L290.49 55.9484V52.2717L290.112 52.4522C288.948 53.0431 288.013 53.273 286.847 53.273C284.384 53.273 283.187 52.0256 283.187 49.4652V35.4643H290.67Z" fill="#373737"/>
<path d="M323.766 49.9094C321.647 52.2894 319.365 53.4545 316.838 53.4545C312.176 53.4545 308.533 49.4004 308.533 44.2303V44.1317C308.533 38.978 312.079 34.9566 316.624 34.9566C319.793 34.9566 321.811 36.6802 323.519 38.5512L323.716 38.7647L326.359 35.8266L326.212 35.6625C324.357 33.5943 321.598 31.231 316.691 31.231C313.359 31.231 310.271 32.6096 307.975 35.1043C305.725 37.5501 304.479 40.7998 304.479 44.2303V44.3288C304.479 47.7427 305.725 50.9599 307.975 53.389C310.271 55.8673 313.359 57.2298 316.691 57.2298C321.647 57.2298 324.488 54.6527 326.407 52.4207L326.573 52.24L323.994 49.7123L323.813 49.9094H323.766Z" fill="#373737"/>
<path d="M262.047 31.231C258.27 31.231 255.579 32.2648 253.461 33.2825L253.247 33.381L254.463 36.8443L254.724 36.7129C256.646 35.7938 258.812 34.9402 261.702 34.9402C265.984 34.9402 268.431 36.9098 268.431 41.4399H261.472C254.971 41.4399 251.245 44.2794 251.245 49.2199V49.3185C251.245 54.4722 255.76 57.1804 260.208 57.1804C264.296 57.1804 266.903 55.2766 268.431 53.4712V56.6717H272.24V41.5057C272.24 38.3707 271.418 35.728 269.777 34.0211C268.02 32.1829 265.426 31.2473 262.063 31.2473L262.047 31.231ZM268.414 44.6571V47.4308C268.414 51.0582 265.165 53.783 260.864 53.783C257.007 53.783 255.266 51.403 255.266 49.1871V49.0886C255.266 47.0698 256.399 44.6571 261.816 44.6571H268.414Z" fill="#373737"/>
<path d="M155.891 29.4248C155.891 25.8469 156.81 24.501 159.65 24.501C160.749 24.501 161.619 24.6978 162.949 25.1082L163.195 25.1738V21.4809L163.113 21.4479C161.931 21.0047 160.782 20.8242 159.19 20.8242C157.023 20.8242 155.234 21.4973 154.003 22.7938C152.624 24.2383 151.902 26.4542 151.902 29.2443V31.7556H147.568V35.4815H151.902V56.6713H155.891V35.4815H163.376V31.7556H155.891V29.4414V29.4248Z" fill="#373737"/>
<path d="M299.585 56.6549H295.598V34.3983V31.7559H299.585V56.6549Z" fill="#373737"/>
<path d="M339.783 31.231C336.01 31.231 333.316 32.2648 331.2 33.2825L330.987 33.381L332.2 36.8443L332.464 36.7129C334.383 35.7938 336.551 34.9402 339.439 34.9402C343.724 34.9402 346.17 36.9098 346.17 41.4399H339.209C332.708 41.4399 328.984 44.2794 328.984 49.2199V49.3185C328.984 54.4722 333.497 57.1804 337.945 57.1804C342.033 57.1804 344.643 55.2766 346.17 53.4712V56.6717H349.977V41.5057C349.977 38.3707 349.158 35.728 347.516 34.0211C345.759 32.1829 343.166 31.2473 339.8 31.2473L339.783 31.231ZM346.17 44.6571V47.4308C346.17 51.0582 342.918 53.783 338.62 53.783C334.76 53.783 333.005 51.403 333.005 49.1871V49.0886C333.005 47.0698 334.138 44.6571 339.556 44.6571H346.153H346.17Z" fill="#373737"/>
<path d="M351.438 33.9711C351.438 33.528 351.537 33.1178 351.751 32.7566C351.965 32.3956 352.243 32.0837 352.587 31.8702C352.931 31.6569 353.342 31.542 353.753 31.542C354.164 31.542 354.558 31.6569 354.919 31.8702C355.28 32.0837 355.558 32.3792 355.755 32.7566C355.952 33.1342 356.066 33.5444 356.066 33.9711C356.066 34.3979 355.969 34.7919 355.772 35.1693C355.575 35.547 355.297 35.8424 354.936 36.0721C354.573 36.302 354.181 36.4169 353.753 36.4169C353.326 36.4169 352.931 36.302 352.57 36.0721C352.209 35.8424 351.931 35.547 351.734 35.1693C351.537 34.7919 351.438 34.3979 351.438 33.9548V33.9711ZM351.815 33.9711C351.815 34.3488 351.898 34.6934 352.079 35.0052C352.259 35.3171 352.49 35.5797 352.784 35.7602C353.081 35.9407 353.409 36.0229 353.753 36.0229C354.098 36.0229 354.425 35.9243 354.722 35.7438C355.017 35.5633 355.264 35.3171 355.428 34.9888C355.591 34.6606 355.689 34.3324 355.689 33.9548C355.689 33.5774 355.608 33.2491 355.428 32.9207C355.247 32.5925 355.017 32.3628 354.722 32.1821C354.425 32.0016 354.098 31.9032 353.753 31.9032C353.409 31.9032 353.081 31.9852 352.784 32.1657C352.49 32.3464 352.243 32.5925 352.079 32.9043C351.915 33.2161 351.815 33.561 351.815 33.9384V33.9711ZM353.262 34.2174V35.3171H352.801V32.5433H353.703C354.031 32.5433 354.295 32.6088 354.475 32.7566C354.656 32.9043 354.755 33.1014 354.755 33.3802C354.755 33.6593 354.622 33.8564 354.344 33.9875C354.606 34.1025 354.739 34.316 354.739 34.6442V34.8411C354.739 35.0216 354.755 35.1693 354.786 35.2515V35.3007H354.311C354.311 35.3007 354.261 35.0874 354.261 34.8739C354.261 34.6606 354.261 34.562 354.261 34.5129C354.228 34.2996 354.081 34.201 353.834 34.1847H353.262V34.2174ZM353.262 33.7906H353.77C353.934 33.7906 354.048 33.7415 354.147 33.6757C354.245 33.6101 354.295 33.5116 354.295 33.3966C354.295 33.2325 354.245 33.1342 354.164 33.0684C354.081 33.0029 353.934 32.9701 353.703 32.9701H353.262V33.807V33.7906Z" fill="#373737"/>
</g>
<defs>
<clipPath id="clip0_48_2930">
<rect width="357" height="88" fill="white" transform="translate(0 0.635254)"/>
</clipPath>
</defs>
</svg>
