<svg width="227" height="65" viewBox="0 0 227 65" fill="none" xmlns="http://www.w3.org/2000/svg">
<g clip-path="url(#clip0_48_2834)">
<path d="M89.0196 18.2762V23.5592H74.7553V29.3329H87.8875V34.6537H74.7553V45.7858H67.8873V18.2762H89.0196ZM94.6045 18.2384H100.529V22.9177H94.6045V18.2384ZM94.6045 25.4083H100.529V45.7858H94.6045V25.4083ZM104.793 25.446H111.133C113.624 34.5027 114.039 36.3518 114.718 40.2386C115.548 35.7103 115.661 35.2197 116.869 30.4272L118.114 25.446H124.265L117.661 45.7858H111.397L104.793 25.446ZM146.982 40.5782C146.303 41.6726 145.473 42.7292 144.529 43.6349C142.416 45.5217 139.699 46.5783 136.831 46.5028C130.794 46.5028 126.529 42.616 126.529 35.9744C126.529 31.0687 128.944 24.7291 136.982 24.7291C139.737 24.6536 142.379 25.7102 144.303 27.6347C146.982 30.4649 147.133 34.465 147.171 36.7669H132.643C132.643 39.2952 134.039 41.8235 137.322 41.8235C140.605 41.8235 141.737 39.6726 142.492 38.2386L146.982 40.5782ZM141.02 33.031C140.982 31.9744 140.567 30.9555 139.888 30.1631C139.095 29.4083 138.039 29.031 136.982 29.031C135.812 29.031 134.718 29.5215 133.963 30.3517C133.322 31.1065 132.907 32.0499 132.756 33.031H141.02ZM153.171 19.5592H159.133V25.8989H163.058V29.5593H159.096V38.7669C159.096 40.0122 159.096 41.1065 160.643 41.1065L162.794 41.0311V45.7103C161.737 45.899 160.681 46.0122 159.624 46.0122C157.548 46.0122 155.284 45.899 153.964 44.0122C153.133 42.8047 153.096 41.3707 153.096 39.4084V29.5215H150.152V25.8611H153.133L153.171 19.5592ZM173.85 27.5215C175.473 26.0876 177.549 25.2574 179.737 25.1819V30.5027L177.775 30.8046C174.869 31.2951 174.001 31.748 174.001 34.314V45.7481H168.039V25.3706H173.888L173.85 27.5215ZM184.077 31.2197C184.039 29.4461 184.832 27.7857 186.228 26.6913C188.115 25.2196 190.53 24.9177 192.907 24.9177C195.285 24.9177 201.473 25.4838 201.473 30.7668V42.5405C201.473 44.7292 201.587 45.0311 202.039 45.7481H196.19V43.8613C194.643 44.9934 192.945 46.2764 189.964 46.2764C185.322 46.2764 183.285 42.9179 183.285 40.0499C183.285 36.7669 185.888 34.9178 187.586 34.2008C190.19 33.3706 192.907 32.7291 195.624 32.314V31.2197C195.549 30.2763 195.473 28.7291 193.285 28.7291C190.643 28.7291 190.266 30.3517 190.115 31.1065L184.077 31.2197ZM191.7 37.3707C190.681 37.748 189.134 38.3141 189.134 39.899C189.209 41.1065 190.228 42.0122 191.436 41.9745C192.19 41.9367 192.869 41.7103 193.511 41.2952C195.473 40.0499 195.587 38.2009 195.624 36.0876L191.7 37.3707ZM214.304 27.2574C214.87 26.5781 215.549 26.0498 216.341 25.6725C217.511 25.1819 218.756 24.9177 220.04 24.88C221.285 24.8423 222.53 25.1441 223.662 25.6725C225.813 26.8045 226.341 28.6536 226.341 31.7857V45.7481H220.379V34.2763C220.492 33.2574 220.379 32.2385 220.115 31.2574C219.624 30.2385 218.568 29.597 217.436 29.7102C214.266 29.7102 214.266 32.2385 214.266 34.7669V45.7481H208.304V25.446H214.341L214.304 27.2574ZM31.2833 31.8234H37.6229C38.1513 31.8234 38.5663 31.4083 38.5663 30.88C38.5663 30.7668 38.5286 30.6159 38.4909 30.5027L27.6229 0.879795C27.4719 0.540169 27.1323 0.276014 26.7549 0.276014H20.4153C19.887 0.276014 19.4719 0.691112 19.4719 1.21942C19.4719 1.33263 19.5096 1.44584 19.5096 1.52131L30.4153 31.2197C30.5285 31.597 30.8682 31.8234 31.2833 31.8234ZM30.1512 63.2954H36.4909C37.0192 63.2954 37.4343 62.8803 37.4343 62.352C37.4343 62.2388 37.3965 62.1256 37.3965 62.0124L14.9435 0.842056C14.7926 0.464695 14.4529 0.238281 14.0756 0.238281H7.73591C7.2076 0.238281 6.79251 0.653379 6.79251 1.18169C6.79251 1.29489 6.83024 1.4081 6.83024 1.48358L29.2833 62.6539C29.4342 63.069 29.7738 63.2954 30.1512 63.2954ZM17.6983 63.2954H24.0379C24.5285 63.2954 24.9436 62.918 24.9813 62.4275C24.9813 62.3143 24.9436 62.1633 24.9436 62.0501L14.0001 32.3895C13.8492 32.0499 13.5095 31.7857 13.1322 31.7857H6.75477C6.2642 31.8234 5.8491 32.2385 5.8491 32.7291C5.8491 32.8423 5.88684 32.9178 5.88684 33.031L16.7549 62.6916C16.9435 63.069 17.2832 63.2954 17.6983 63.2954ZM32.038 1.55905L37.1324 15.446C37.2833 15.7856 37.6229 16.0497 38.0003 16.0497H44.3022C44.8306 16.0497 45.2457 15.6346 45.2457 15.1063C45.2457 14.9931 45.2079 14.8799 45.2079 14.7667L40.1135 0.879795C39.9626 0.540169 39.623 0.276014 39.2456 0.276014H32.9059C32.3776 0.276014 31.9625 0.691112 31.9625 1.21942C31.9625 1.33263 32.0003 1.44584 32.038 1.55905ZM6.00005 63.2954H12.3397C12.868 63.2954 13.2831 62.8803 13.2831 62.352C13.2831 62.2388 13.2454 62.1256 13.2454 62.0124L8.11327 48.0877C7.96233 47.7104 7.6227 47.484 7.24534 47.484H0.943404C0.415098 47.484 0 47.899 0 48.4274C0 48.5406 0.0377327 48.6538 0.0377327 48.767L5.13211 62.6916C5.28306 63.069 5.62268 63.2954 6.00005 63.2954Z" fill="#0073FF"/>
</g>
<defs>
<clipPath id="clip0_48_2834">
<rect width="226.341" height="64" fill="white" transform="translate(0 0.216797)"/>
</clipPath>
</defs>
</svg>
