<svg width="175" height="125" viewBox="0 0 175 125" fill="none" xmlns="http://www.w3.org/2000/svg">
<g clip-path="url(#clip0_48_3175)">
<path fill-rule="evenodd" clip-rule="evenodd" d="M72.8192 13.3421C75.6811 10.3376 79.1228 7.94506 82.9361 6.3092C86.7495 4.67335 90.8551 3.82822 95.0044 3.82497C100.524 3.84601 105.939 5.34141 110.687 8.15648C115.435 10.9715 119.345 15.0041 122.013 19.8369C126.807 17.6935 132.001 16.5869 137.253 16.5895C158.088 16.5895 175 33.6304 175 54.6582C175 75.6859 158.088 92.7268 137.253 92.7268C134.748 92.726 132.25 92.4783 129.794 91.9873C126.364 98.1419 120.707 102.75 113.986 104.864C107.265 106.978 99.9898 106.439 93.654 103.356C91.1923 109.159 87.0437 114.087 81.7464 117.503C76.4491 120.918 70.2477 122.663 63.9467 122.51C57.6456 122.358 51.5359 120.315 46.41 116.647C41.2841 112.98 37.3788 107.856 35.2007 101.942C33.2258 102.358 31.2129 102.568 29.1946 102.567C13.054 102.567 2.87888e-05 89.3199 2.87888e-05 73.0507C-0.00717034 67.8828 1.33595 62.8026 3.89633 58.3135C6.45671 53.8243 10.1455 50.082 14.5973 47.4573C11.3089 39.8393 10.9208 31.2815 13.5063 23.3971C16.0917 15.5128 21.4721 8.84658 28.6331 4.65518C35.7941 0.463771 44.241 -0.963272 52.3814 0.643064C60.5219 2.2494 67.7935 6.77814 72.8256 13.3756" fill="#00A1E0"/>
<path fill-rule="evenodd" clip-rule="evenodd" d="M25.4909 63.4978C25.381 63.7846 25.5302 63.8444 25.5655 63.8952C25.8869 64.1139 26.2196 64.3154 26.5623 64.4991C28.1745 65.3455 29.9763 65.7661 31.7967 65.7209C35.3849 65.7209 37.6163 63.811 37.6163 60.7372V60.6768C37.6163 57.8345 35.0956 56.7992 32.742 56.0597L32.434 55.96C30.6527 55.3825 29.1158 54.8797 29.1158 53.7093V53.6495C29.1158 52.6463 30.0161 51.9068 31.4051 51.9068C32.9939 51.9403 34.5539 52.3385 35.9643 53.0708C35.9643 53.0708 36.3129 53.2958 36.4395 52.9595C36.5083 52.7775 37.1083 51.1718 37.1726 50.9918C37.1977 50.9148 37.1938 50.8313 37.1617 50.7569C37.1297 50.6826 37.0716 50.6225 36.9983 50.5879C35.437 49.6779 33.6612 49.2006 31.8539 49.2054L31.4958 49.2067C28.2098 49.2067 25.9141 51.1937 25.9141 54.036V54.0971C25.9141 57.0937 28.4477 58.0711 30.8141 58.7463L31.1948 58.8646C32.9182 59.3945 34.4101 59.8549 34.4101 61.0639V61.1243C34.4101 62.2368 33.4391 63.0663 31.8829 63.0663C30.2455 63.0786 28.6395 62.6163 27.2593 61.7352C27.0066 61.588 26.8626 61.4819 26.6677 61.3629C26.6297 61.3293 26.5835 61.3064 26.5337 61.2965C26.484 61.2866 26.4325 61.2901 26.3846 61.3065C26.3366 61.323 26.2938 61.3519 26.2607 61.3903C26.2275 61.4286 26.2051 61.4751 26.1957 61.525L25.4884 63.4927L25.4909 63.4978ZM78.0257 63.4927C77.9157 63.7795 78.0649 63.8393 78.1015 63.8901C78.4228 64.109 78.7555 64.3106 79.0983 64.4939C80.7105 65.3404 82.5123 65.761 84.3327 65.7157C87.9209 65.7157 90.1523 63.8059 90.1523 60.7321V60.6716C90.1523 57.8293 87.638 56.794 85.278 56.0545L84.97 55.9548C83.1887 55.3774 81.6518 54.8745 81.6518 53.7042V53.6444C81.6518 52.6412 82.5521 51.9017 83.9411 51.9017C85.5298 51.9359 87.0896 52.3341 88.5003 53.0656C88.5003 53.0656 88.8489 53.2907 88.9762 52.9544C89.0443 52.7724 89.645 51.1667 89.7028 50.9866C89.728 50.9097 89.7243 50.8263 89.6923 50.7519C89.6603 50.6776 89.6023 50.6174 89.5292 50.5828C87.9678 49.6727 86.192 49.1955 84.3848 49.2002L84.026 49.2015C80.74 49.2015 78.4443 51.1885 78.4443 54.0308V54.0919C78.4443 57.0885 80.9779 58.066 83.3443 58.7412L83.7244 58.8595C85.4542 59.3894 86.9396 59.8498 86.9396 61.0587V61.1192C86.9396 62.2317 85.9686 63.0612 84.4124 63.0612C82.7749 63.0743 81.1688 62.6119 79.7889 61.7301C79.5362 61.5828 79.3883 61.4812 79.1967 61.3578C79.1571 61.3291 79.1112 61.3103 79.0628 61.3031C79.0145 61.2959 78.9651 61.3005 78.9189 61.3164C78.8727 61.3322 78.8309 61.359 78.7972 61.3944C78.7636 61.4299 78.7389 61.4728 78.7253 61.5198L78.0179 63.4875L78.0257 63.4927ZM113.9 57.4686C113.977 58.8912 113.645 60.3062 112.942 61.5455C112.597 61.9894 112.156 62.3488 111.652 62.5962C111.147 62.8436 110.593 62.9725 110.031 62.9731C109.469 62.9737 108.914 62.846 108.409 62.5997C107.904 62.3534 107.462 61.9951 107.116 61.552C106.42 60.3105 106.092 58.8962 106.171 57.475C106.092 56.0599 106.42 54.6518 107.116 53.4174C107.431 52.9451 107.867 52.5655 108.378 52.3179C108.889 52.0703 109.457 51.9637 110.023 52.0091C110.59 51.9656 111.159 52.0729 111.672 52.3203C112.185 52.5676 112.623 52.9461 112.942 53.4174C113.648 54.6483 113.981 56.0581 113.9 57.475V57.4686ZM116.897 54.2533C116.625 53.3011 116.161 52.4147 115.534 51.649C114.907 50.9012 114.12 50.3035 113.231 49.8999C112.213 49.4754 111.12 49.2568 110.016 49.2568C108.912 49.2568 107.82 49.4754 106.801 49.8999C105.914 50.3059 105.128 50.9032 104.499 51.649C103.872 52.4152 103.408 53.3014 103.136 54.2533C102.547 56.3609 102.547 58.5892 103.136 60.6967C103.406 61.6492 103.871 62.5357 104.499 63.3011C105.126 64.0454 105.913 64.6388 106.801 65.0373C108.86 65.8758 111.166 65.8758 113.225 65.0373C114.113 64.6395 114.9 64.0459 115.527 63.3011C116.154 62.535 116.618 61.6487 116.89 60.6967C117.478 58.5891 117.478 56.361 116.89 54.2533H116.897ZM141.519 62.4844C141.508 62.4461 141.489 62.4106 141.463 62.3803C141.437 62.35 141.404 62.3255 141.368 62.3084C141.332 62.2913 141.293 62.282 141.253 62.281C141.213 62.2801 141.173 62.2876 141.137 62.303C140.687 62.4846 140.219 62.618 139.741 62.7011C139.198 62.7824 138.65 62.8218 138.101 62.8188C137.472 62.8528 136.843 62.7561 136.253 62.5347C135.663 62.3134 135.125 61.9722 134.674 61.5327C133.844 60.6774 133.381 59.3013 133.388 57.4364C133.324 56.0292 133.729 54.6404 134.539 53.4881C134.934 52.9935 135.442 52.6019 136.021 52.3466C136.6 52.0912 137.232 51.9799 137.864 52.0219C138.938 52.0027 140.008 52.1558 141.034 52.4753C141.034 52.4753 141.268 52.5775 141.381 52.2682C141.644 51.5416 141.838 51.0207 142.121 50.2233C142.133 50.188 142.138 50.1503 142.136 50.1129C142.133 50.0754 142.123 50.0389 142.105 50.0057C142.087 49.9725 142.063 49.9434 142.033 49.9202C142.004 49.897 141.97 49.8802 141.933 49.8709C141.283 49.6437 140.614 49.4746 139.934 49.3655C139.188 49.2592 138.436 49.2089 137.683 49.215C136.538 49.1923 135.4 49.4112 134.345 49.8574C133.424 50.2581 132.601 50.855 131.934 51.6065C131.276 52.367 130.78 53.253 130.474 54.2109C130.142 55.2543 129.977 56.3439 129.985 57.439C129.985 59.9212 130.654 61.9339 131.979 63.4065C133.304 64.8855 135.297 65.6315 137.895 65.6315C139.344 65.6336 140.781 65.3766 142.139 64.8727C142.201 64.8403 142.249 64.7853 142.272 64.719C142.294 64.6527 142.291 64.5801 142.261 64.5164L141.522 62.4844H141.519ZM146.763 55.7966C146.859 54.9487 147.14 54.1321 147.586 53.4045C147.896 52.9243 148.327 52.535 148.837 52.2763C149.346 52.0176 149.915 51.8987 150.486 51.9319C151.048 51.9005 151.609 52.0205 152.108 52.2796C152.608 52.5386 153.03 52.9271 153.328 53.4045C153.75 54.1324 153.98 54.9555 153.997 55.7966L146.731 55.7954L146.763 55.7966ZM156.859 53.6746C156.601 52.7996 156.158 51.9903 155.56 51.3017C155.024 50.6854 154.368 50.1862 153.63 49.8356C152.711 49.4447 151.723 49.2442 150.724 49.2459C149.573 49.2181 148.43 49.4397 147.374 49.8954C146.473 50.3086 145.676 50.9171 145.039 51.6766C144.405 52.4521 143.937 53.3495 143.663 54.3131C143.36 55.3644 143.211 56.4537 143.218 57.5477C143.208 58.6449 143.363 59.7375 143.678 60.7887C143.969 61.7655 144.484 62.6606 145.183 63.4021C145.882 64.1437 146.745 64.711 147.703 65.0585C148.884 65.4828 150.134 65.6849 151.388 65.6546C154.32 65.645 155.864 64.9923 156.494 64.6386C156.607 64.5756 156.713 64.4669 156.58 64.1537L155.918 62.2953C155.905 62.2583 155.885 62.2243 155.858 62.1952C155.832 62.1662 155.8 62.1427 155.764 62.1262C155.729 62.1097 155.69 62.1005 155.651 62.0992C155.612 62.0979 155.572 62.1044 155.536 62.1185C154.219 62.6726 152.796 62.9295 151.369 62.8709C150.099 62.9479 148.85 62.5177 147.896 61.6748C147.15 60.9288 146.778 59.8421 146.72 58.2988L156.88 58.3065C156.953 58.3063 157.023 58.2793 157.077 58.2307C157.132 58.1821 157.167 58.1153 157.175 58.0428C157.372 56.5819 157.269 55.0963 156.872 53.6765L156.859 53.6746ZM65.5453 55.7966C65.6418 54.9488 65.9228 54.1323 66.3684 53.4045C66.6783 52.9244 67.1101 52.5351 67.6196 52.2764C68.1291 52.0177 68.6981 51.8988 69.2686 51.9319C69.8308 51.9005 70.3911 52.0205 70.8911 52.2796C71.3911 52.5386 71.8123 52.9271 72.1109 53.4045C72.5322 54.1326 72.7623 54.9556 72.7797 55.7966L65.5132 55.7954L65.5453 55.7966ZM75.6412 53.6746C75.3838 52.7995 74.9408 51.9901 74.3423 51.3017C73.807 50.6854 73.1503 50.1862 72.4131 49.8356C71.494 49.4447 70.5053 49.2441 69.5065 49.2459C68.356 49.2181 67.213 49.4397 66.1562 49.8954C65.2556 50.3086 64.4583 50.9171 63.8219 51.6766C63.1883 52.4525 62.72 53.3497 62.4458 54.3131C62.1438 55.3645 61.9943 56.4538 62.0021 57.5477C61.9912 58.645 62.1465 59.7377 62.4625 60.7887C62.7504 61.7658 63.2642 62.6616 63.9624 63.4033C64.6606 64.1451 65.5236 64.7121 66.4816 65.0585C67.6624 65.4834 68.9118 65.6855 70.1663 65.6546C73.0986 65.645 74.6419 64.9923 75.2721 64.6386C75.384 64.5756 75.4908 64.4669 75.3576 64.1537L74.6953 62.2953C74.6822 62.2583 74.6618 62.2242 74.6354 62.1952C74.6089 62.1661 74.5769 62.1427 74.5413 62.1262C74.5056 62.1097 74.467 62.1006 74.4278 62.0992C74.3885 62.0979 74.3494 62.1044 74.3127 62.1185C72.9959 62.6726 71.5731 62.9295 70.1457 62.8709C68.8756 62.9467 67.6272 62.5167 66.6732 61.6748C65.9273 60.9288 65.5543 59.8421 65.4965 58.2988L75.6567 58.3065C75.7296 58.3063 75.7999 58.2793 75.8543 58.2307C75.9087 58.1821 75.9434 58.1153 75.9518 58.0428C76.1484 56.5819 76.0452 55.0962 75.6483 53.6765L75.6412 53.6746ZM43.6173 62.4201C43.3814 62.2636 43.1819 62.0583 43.0321 61.8182C42.8077 61.4165 42.7022 60.9593 42.7279 60.4999C42.6995 60.1229 42.7679 59.7448 42.9266 59.4015C43.0853 59.0583 43.329 58.7613 43.6346 58.5386C43.6282 58.5399 44.5092 57.7798 46.5798 57.8055C47.5015 57.822 48.4209 57.9005 49.3321 58.0403V62.6509H49.3334C48.4295 62.834 47.5143 62.9558 46.594 63.0155C44.5298 63.1397 43.6166 62.4214 43.6231 62.4233L43.6173 62.4201ZM47.6556 55.2822C47.2441 55.252 46.7103 55.2372 46.0737 55.2372C45.2316 55.2338 44.3927 55.3415 43.5787 55.5574C42.8199 55.7552 42.1032 56.0885 41.4631 56.5413C40.8212 56.991 40.301 57.593 39.9492 58.2934C39.5975 58.9938 39.4252 59.7705 39.4477 60.5539C39.4262 61.3508 39.5852 62.1422 39.9127 62.8689C40.2151 63.5004 40.6704 64.0463 41.2373 64.4573C41.8572 64.893 42.5597 65.1972 43.3015 65.3511C44.1845 65.5422 45.0861 65.634 45.9895 65.625C47.0216 65.6252 48.0519 65.5394 49.0697 65.3685C49.9241 65.2211 50.7751 65.0556 51.6226 64.872C51.9609 64.7942 52.3364 64.692 52.3364 64.692C52.4073 64.6718 52.469 64.6277 52.5112 64.5673C52.5534 64.5068 52.5734 64.4337 52.5679 64.3602L52.5621 55.1002C52.5621 53.0682 52.0194 51.557 50.9481 50.6246C49.8806 49.6922 48.318 49.2227 46.2924 49.2227C45.3804 49.2318 44.4706 49.3155 43.5723 49.4729C43.5723 49.4729 41.3602 49.9024 40.447 50.6175C40.3858 50.6624 40.3428 50.728 40.326 50.802C40.3092 50.8761 40.3198 50.9538 40.3557 51.0207L41.0759 52.9499C41.0863 52.983 41.1033 53.0137 41.1259 53.0401C41.1485 53.0665 41.1762 53.088 41.2073 53.1034C41.2384 53.1188 41.2724 53.1277 41.307 53.1296C41.3417 53.1315 41.3764 53.1264 41.409 53.1145C41.4665 53.0906 41.5221 53.0627 41.5756 53.0309C42.9533 52.3636 44.4626 52.0121 45.9933 52.002C46.8782 51.9437 47.7582 52.1738 48.5012 52.6579C49.0549 53.083 49.3372 53.7254 49.3372 55.0758V55.5047C48.4691 55.3787 47.6653 55.306 47.6653 55.306L47.6556 55.2822ZM129.323 50.0542C129.337 50.021 129.345 49.9853 129.346 49.9492C129.346 49.913 129.34 49.8772 129.326 49.8436C129.313 49.81 129.293 49.7794 129.268 49.7534C129.243 49.7275 129.213 49.7068 129.179 49.6925L129.171 49.6889C128.615 49.5382 128.047 49.4415 127.473 49.4002C126.579 49.304 125.675 49.4492 124.856 49.8208C124.193 50.1001 123.606 50.5345 123.145 51.0876L123.144 49.8529C123.146 49.8134 123.14 49.774 123.126 49.7369C123.112 49.6999 123.091 49.666 123.064 49.6373C123.037 49.6087 123.004 49.5858 122.968 49.5702C122.931 49.5545 122.892 49.5463 122.853 49.5462H120.255C120.215 49.5466 120.176 49.5549 120.14 49.5706C120.104 49.5864 120.072 49.6093 120.044 49.6379C120.017 49.6665 119.996 49.7003 119.982 49.7372C119.969 49.7742 119.962 49.8135 119.964 49.8529V64.9646C119.964 65.0463 119.997 65.1245 120.055 65.1822C120.112 65.24 120.191 65.2725 120.272 65.2727H122.934C123.016 65.2725 123.094 65.24 123.152 65.1822C123.209 65.1245 123.242 65.0462 123.242 64.9646V57.3766C123.218 56.4774 123.331 55.5798 123.577 54.7144C123.754 54.1556 124.058 53.6451 124.464 53.2225C124.816 52.8747 125.246 52.6166 125.718 52.4701C126.161 52.3429 126.62 52.2784 127.081 52.2785C127.456 52.2873 127.829 52.333 128.194 52.4148C128.389 52.4367 128.498 52.3171 128.564 52.1409C128.739 51.6773 129.233 50.2889 129.33 50.0124" fill="#FFFFFE"/>
<path fill-rule="evenodd" clip-rule="evenodd" d="M104.46 43.0795C104.131 42.98 103.796 42.9006 103.457 42.8416C103.002 42.7655 102.54 42.7298 102.079 42.7348C101.295 42.6883 100.511 42.801 99.7725 43.066C99.0341 43.331 98.3571 43.7429 97.7823 44.2769C96.6477 45.5654 95.9361 47.1712 95.7438 48.8773L95.6197 49.5647H93.3169C93.234 49.5641 93.1537 49.5937 93.0911 49.648C93.0285 49.7024 92.9878 49.7777 92.9767 49.8598L92.5986 51.969C92.5723 52.171 92.6591 52.297 92.9292 52.2957H95.1708L92.8964 64.9915C92.7616 65.8401 92.5583 66.6764 92.2887 67.4923C92.1301 68.0073 91.8914 68.494 91.5813 68.9347C91.3562 69.2666 91.0308 69.5178 90.6528 69.6517C90.2668 69.7727 89.8637 69.8307 89.4593 69.8234C89.186 69.8177 88.9138 69.7878 88.6458 69.734C88.457 69.6968 88.2733 69.6372 88.0986 69.5565C88.0638 69.5426 88.0266 69.5357 87.9892 69.5364C87.9518 69.5371 87.9149 69.5453 87.8807 69.5606C87.8465 69.5758 87.8157 69.5978 87.7902 69.6251C87.7647 69.6525 87.7449 69.6847 87.732 69.7198C87.6478 69.9353 87.0504 71.5783 86.9797 71.7815C86.9627 71.8182 86.9532 71.8579 86.9519 71.8984C86.9506 71.9388 86.9575 71.9791 86.9721 72.0168C86.9866 72.0546 87.0087 72.089 87.0368 72.118C87.065 72.1471 87.0987 72.1702 87.1359 72.1859C87.4387 72.2958 87.7482 72.3862 88.0625 72.4567C88.5503 72.5643 89.0494 72.6118 89.5486 72.5981C90.3945 72.6125 91.2367 72.482 92.0385 72.2123C92.7623 71.9384 93.4065 71.4887 93.913 70.9037C94.4971 70.2413 94.945 69.4704 95.2313 68.635C95.6313 67.5284 95.9296 66.3876 96.1226 65.2268L98.408 52.2957H101.749C101.832 52.2961 101.912 52.2664 101.975 52.2121C102.037 52.1578 102.078 52.0826 102.089 52.0005L102.468 49.8913C102.494 49.6894 102.408 49.5634 102.136 49.5647H98.8935C99.0065 48.7881 99.1857 48.0227 99.4291 47.2767C99.583 46.8676 99.8259 46.4979 100.14 46.1944C100.377 45.9525 100.668 45.7712 100.99 45.6659C101.342 45.5569 101.71 45.5039 102.079 45.5089C102.358 45.5094 102.638 45.5376 102.912 45.5932C103.226 45.6601 103.349 45.6954 103.431 45.7199C103.761 45.8208 103.806 45.7231 103.871 45.563L104.646 43.4332C104.659 43.3978 104.664 43.3601 104.662 43.3226C104.659 43.285 104.649 43.2484 104.631 43.2151C104.614 43.1818 104.589 43.1525 104.56 43.1292C104.53 43.1058 104.496 43.0889 104.46 43.0795ZM59.1413 65.0185C59.1432 65.058 59.1371 65.0974 59.1234 65.1345C59.1096 65.1716 59.0886 65.2055 59.0614 65.2343C59.0343 65.263 59.0017 65.286 58.9654 65.3019C58.9292 65.3177 58.8902 65.3261 58.8507 65.3265H56.1608C56.1212 65.3262 56.0821 65.3178 56.0458 65.302C56.0095 65.2862 55.9768 65.2632 55.9496 65.2345C55.9224 65.2057 55.9013 65.1718 55.8875 65.1346C55.8737 65.0975 55.8676 65.058 55.8695 65.0185V43.3682C55.8677 43.3288 55.8739 43.2894 55.8877 43.2525C55.9016 43.2155 55.9227 43.1817 55.9499 43.1531C55.9771 43.1245 56.0098 43.1017 56.0461 43.0861C56.0823 43.0705 56.1213 43.0623 56.1608 43.0621H58.8507C58.8901 43.0624 58.929 43.0706 58.9652 43.0863C59.0014 43.1019 59.034 43.1247 59.0611 43.1533C59.0883 43.1819 59.1094 43.2157 59.1231 43.2526C59.1369 43.2895 59.1431 43.3289 59.1413 43.3682V65.0185Z" fill="#FFFFFE"/>
</g>
<defs>
<clipPath id="clip0_48_3175">
<rect width="175" height="124.091" fill="white"/>
</clipPath>
</defs>
</svg>
