<svg width="223" height="96" viewBox="0 0 223 96" fill="none" xmlns="http://www.w3.org/2000/svg">
<path d="M105.016 59.8371C105.016 57.3679 104.127 55.6559 101.361 55.6559C98.9249 55.6559 97.4763 56.9728 97.4763 59.475C97.4763 66.0925 108.588 62.1417 108.588 70.7346C108.588 76.1669 104.604 77.7308 101.279 77.7308C95.7808 77.7308 94.1675 74.8994 94.1675 69.9116H97.0483C97.0483 72.5454 97.2129 75.3768 101.46 75.3768C102.509 75.4101 103.529 75.0258 104.295 74.3083C105.061 73.5907 105.511 72.5986 105.547 71.5495C105.547 71.4425 105.547 71.3355 105.547 71.2285C105.547 64.578 94.435 68.43 94.435 59.8042C94.435 57.6313 95.3569 53.3184 101.316 53.3184C105.793 53.3184 107.835 55.5571 107.901 59.87L105.016 59.8371Z" fill="black"/>
<path d="M116.341 64.1167H117.79C120.259 64.1167 121.346 62.3388 121.346 60.0013C121.346 57.8613 120.555 56.1164 118.317 56.1164C115.255 56.1164 114.959 58.9478 114.959 60.6433H112.078C112.078 56.6596 113.954 53.927 118.251 53.927C123.123 53.927 124.243 57.3839 124.243 59.9848C124.243 62.3224 123.058 64.3965 120.621 64.9891V65.055C123.255 65.5818 124.934 67.2608 124.934 70.4873C124.934 74.7344 122.794 77.6974 118.317 77.6974C112.061 77.6974 111.699 72.2322 111.699 71.2116V70.9153H114.58C114.58 73.0553 115.633 75.5245 118.284 75.5245C119.996 75.5245 121.988 74.6685 121.988 70.7177C121.988 67.9851 120.671 66.2731 117.773 66.2731H116.292L116.341 64.1167Z" fill="black"/>
<path d="M24.3891 8.25479C29.0971 5.90491 33.7886 3.52622 38.5131 1.21338C38.5542 9.0326 38.5131 16.8847 38.5131 24.7204C33.9121 25.741 29.3687 27.025 24.7677 28.0415L25.4015 28.4531L24.4385 28.342C24.3315 26.1567 24.4385 23.9673 24.3809 21.782C24.3809 17.2634 24.3836 12.7543 24.3891 8.25479Z" fill="#8C3223"/>
<path d="M38.5117 1.21338C43.2224 3.57286 47.9359 5.92823 52.6521 8.27948V21.7656C52.6274 23.8562 52.6521 25.9509 52.6521 28.0415L52.3476 28.1238C47.7507 26.9674 43.1579 25.7781 38.5364 24.7204C38.5076 16.8847 38.5528 9.0326 38.5117 1.21338Z" fill="#E15343"/>
<path d="M0 20.436C2.09061 19.4154 4.15242 18.3289 6.25949 17.333C6.24303 37.5724 6.24303 57.8119 6.25949 78.0513C4.15242 77.0842 2.10707 75.9936 0.0164615 74.973C0.00548717 56.8022 0 38.6232 0 20.436Z" fill="#8C3223"/>
<path d="M6.25951 17.3333C12.2885 18.8765 18.3587 20.2469 24.3919 21.7902C24.433 23.9755 24.3425 26.1649 24.4495 28.3501L25.4125 28.4612C29.783 29.1691 34.1083 30.1074 38.4829 30.77C38.5323 32.5355 38.5241 34.2968 38.4829 36.0623C33.7996 36.6056 29.0957 37.1776 24.4001 37.8402C24.4001 44.4618 24.4248 51.0876 24.4001 57.7092C29.0834 58.4376 33.7996 58.9438 38.4994 59.5364C38.594 61.2773 38.5323 63.0222 38.5282 64.7671C33.812 65.5614 29.1122 66.4462 24.4166 67.3433V73.644C18.3505 75.1543 12.2885 76.5247 6.24716 78.0556C6.26911 57.8162 6.27323 37.5754 6.25951 17.3333Z" fill="#E15343"/>
<path d="M52.6453 21.7662C58.6949 20.2641 64.7568 18.8155 70.8147 17.3545C70.7955 37.015 70.7955 56.6728 70.8147 76.3279C70.8147 76.8876 70.7571 77.4472 70.7077 78.0069C64.6718 76.5775 58.6524 75.1248 52.6494 73.6487C52.6247 71.5499 52.6494 69.4469 52.6494 67.344C47.9455 66.4468 43.2334 65.562 38.509 64.7595C38.509 63.0146 38.5748 61.2697 38.4801 59.5289C33.7804 58.9486 29.0642 58.4301 24.3809 57.7017C24.4261 51.08 24.3809 44.4543 24.3809 37.8326C29.0971 37.1783 33.801 36.598 38.5048 36.0424C38.5048 34.2769 38.5336 32.5155 38.5048 30.75C42.4597 30.1862 46.3693 29.3014 50.3242 28.6924C51.0198 28.5785 51.7013 28.3909 52.3572 28.1327L52.6617 28.0504C52.6329 25.9474 52.6206 23.8486 52.6453 21.7662Z" fill="#8C3223"/>
<path d="M70.8169 17.3545C72.8746 18.4121 74.9816 19.4122 77.0517 20.4863C77.0325 38.6461 77.0325 56.8059 77.0517 74.9657C74.9364 76.0315 72.7964 77.0563 70.6975 78.1633V78.011C70.7469 77.4513 70.7881 76.8917 70.8045 76.332V17.3545H70.8169Z" fill="#E15343"/>
<path d="M24.7791 28.0428C29.3842 27.0263 33.9234 25.7423 38.5244 24.7217C43.146 25.7793 47.7387 26.9687 52.3356 28.1251C51.6798 28.3833 50.9983 28.571 50.3026 28.6848C46.3519 29.3021 42.4423 30.1869 38.4833 30.7425C34.1045 30.084 29.7792 29.1416 25.4128 28.4338C25.2029 28.3144 24.9889 28.1827 24.7791 28.0428Z" fill="#5E1F19"/>
<path d="M38.5571 36.0505C43.2487 36.6349 47.9484 37.1946 52.6358 37.8407V57.7057C47.9361 58.3888 43.2253 58.9897 38.5036 59.5082C38.5695 51.6849 38.4666 43.8656 38.5571 36.0505Z" fill="#E15343"/>
<path d="M24.3995 67.3357C29.0911 66.4386 33.7949 65.5538 38.5112 64.7595C43.2315 65.5826 47.9436 66.4468 52.6516 67.344C47.9395 68.5045 43.2397 69.7432 38.5071 70.8297C33.7908 69.7062 29.0952 68.521 24.3995 67.3357Z" fill="#F2B0A9"/>
<path d="M24.3877 73.6437C24.4083 71.5449 24.3877 69.4502 24.3877 67.3513C29.0834 68.5324 33.7831 69.7218 38.4911 70.8453C38.5405 78.6645 38.4911 86.5084 38.4911 94.3358C33.7626 92.0271 29.071 89.6443 24.3589 87.2944C24.3809 82.7401 24.3905 78.1898 24.3877 73.6437Z" fill="#8C3223"/>
<path d="M38.5036 70.8339C43.2363 69.7474 47.9361 68.5087 52.6482 67.3481C52.6276 69.447 52.6194 71.5499 52.6482 73.6529C52.6482 78.1798 52.6482 82.7067 52.6482 87.2625C47.9347 89.6137 43.224 91.9691 38.516 94.3286C38.5242 86.4929 38.553 78.6613 38.5036 70.8339Z" fill="#E15343"/>
<path d="M103.456 22.9137C99.6534 22.9137 95.4516 24.387 94.5338 29.202C94.5139 29.2907 94.512 29.3825 94.528 29.4719C94.544 29.5614 94.5777 29.6468 94.6272 29.723C94.6766 29.7993 94.7408 29.8649 94.8159 29.9161C94.891 29.9673 94.9756 30.0029 95.0647 30.021H95.1511L99.0525 30.4901C99.2312 30.4381 99.3885 30.33 99.5011 30.1818C99.6137 30.0336 99.6758 29.8532 99.678 29.667C99.8243 28.94 100.23 28.2912 100.821 27.842C101.411 27.3928 102.144 27.174 102.884 27.2266C103.312 27.2084 103.737 27.2931 104.125 27.4736C104.514 27.654 104.853 27.925 105.114 28.2637C105.571 29.1816 105.753 30.2121 105.637 31.2309V31.7988C103.067 31.9063 100.526 32.3789 98.0895 33.2022C96.785 33.7555 95.6792 34.692 94.9186 35.8877C94.158 37.0833 93.7784 38.4817 93.8301 39.8979C93.8301 44.1696 96.4969 46.2973 99.8056 46.2973C101.066 46.3732 102.325 46.143 103.477 45.6263C104.629 45.1096 105.638 44.3218 106.419 43.3301C106.998 44.3449 107.753 45.2481 108.65 45.9969C108.798 46.0769 108.968 46.1092 109.136 46.0894C109.304 46.0695 109.462 45.9984 109.588 45.8857C110.411 45.1491 111.818 43.8281 112.654 43.1326C112.727 43.0595 112.786 42.9726 112.826 42.8769C112.865 42.7812 112.886 42.6786 112.886 42.5749C112.886 42.4713 112.865 42.3686 112.826 42.2729C112.786 42.1772 112.727 42.0903 112.654 42.0173C111.684 40.9896 111.135 39.6357 111.115 38.2229V32.0252C111.115 29.3584 111.337 26.8192 109.399 24.9426C107.729 23.5689 105.617 22.8479 103.456 22.9137ZM155.865 22.9137C152.063 22.9137 147.861 24.387 146.943 29.202C146.922 29.289 146.918 29.3794 146.931 29.468C146.945 29.5566 146.976 29.6416 147.023 29.7181C147.069 29.7946 147.131 29.8611 147.203 29.9138C147.276 29.9665 147.358 30.0043 147.445 30.0251H147.523L151.445 30.486C151.634 30.4439 151.803 30.3401 151.926 30.1911C152.049 30.042 152.119 29.8561 152.124 29.6629C152.272 28.9333 152.681 28.2826 153.274 27.8332C153.867 27.3838 154.605 27.1666 155.347 27.2225C155.774 27.2043 156.2 27.289 156.588 27.4694C156.976 27.6499 157.316 27.9209 157.577 28.2596C158.009 29.1864 158.166 30.2175 158.03 31.2309V31.7988C155.478 31.9064 152.954 32.3789 150.536 33.2022C149.231 33.7555 148.126 34.692 147.365 35.8877C146.604 37.0833 146.225 38.4817 146.276 39.8979C146.276 44.1696 148.943 46.2973 152.252 46.2973C153.507 46.3685 154.761 46.136 155.907 45.6195C157.054 45.1029 158.058 44.3176 158.837 43.3301C159.414 44.3458 160.169 45.2492 161.067 45.9969C161.216 46.0769 161.386 46.1092 161.554 46.0894C161.722 46.0695 161.879 45.9984 162.005 45.8857C162.829 45.1491 164.236 43.8281 165.071 43.1326C165.211 42.9806 165.289 42.7815 165.289 42.5749C165.289 42.3683 165.211 42.1693 165.071 42.0173C164.114 40.9861 163.577 39.6341 163.565 38.227V32.0252C163.565 29.3584 163.742 26.8192 161.804 24.9426C160.136 23.5562 158.016 22.8338 155.849 22.9137H155.865ZM126.383 23.1236C125.2 23.0973 124.041 23.4639 123.089 24.1661C122.137 24.8684 121.444 25.8665 121.119 27.0044V24.2594C121.107 24.0682 121.025 23.888 120.889 23.7525C120.754 23.617 120.574 23.5353 120.383 23.5228H116.679C116.477 23.529 116.284 23.612 116.141 23.755C115.998 23.898 115.915 24.0902 115.909 24.2924V45.3549C115.928 45.5438 116.012 45.7203 116.146 45.8546C116.28 45.9888 116.457 46.0725 116.646 46.0915H120.65C120.852 46.0853 121.044 46.0023 121.187 45.8592C121.33 45.7162 121.413 45.5241 121.42 45.3219V34.1734C121.42 31.733 121.296 28.4118 124.173 28.4118C127.049 28.4118 126.613 31.8482 126.613 34.1734V45.3261C126.625 45.5208 126.705 45.7051 126.84 45.8461C126.975 45.987 127.156 46.0755 127.35 46.0956H131.354C131.556 46.0894 131.748 46.0064 131.891 45.8634C132.034 45.7204 132.117 45.5282 132.124 45.3261V34.1734C132.032 32.8281 132.153 31.4769 132.482 30.1691C132.651 29.6744 132.962 29.2404 133.376 28.9213C133.79 28.6022 134.289 28.4121 134.811 28.3748C135.358 28.3059 135.909 28.4558 136.345 28.792C136.782 29.1281 137.068 29.6231 137.14 30.1691C137.272 31.4996 137.309 32.8377 137.251 34.1734V45.3261C137.263 45.5208 137.344 45.7051 137.478 45.8461C137.613 45.987 137.794 46.0755 137.988 46.0956H141.98C142.182 46.0894 142.374 46.0064 142.517 45.8634C142.66 45.7204 142.743 45.5282 142.75 45.3261V31.9552C142.75 29.7247 142.972 27.1279 141.713 25.3418C141.066 24.5324 140.216 23.9097 139.249 23.5378C138.282 23.166 137.234 23.0583 136.212 23.2259C135.19 23.3936 134.231 23.8305 133.433 24.4916C132.636 25.1528 132.029 26.0145 131.675 26.9879C130.44 24.3582 128.877 23.14 126.379 23.14L126.383 23.1236ZM194.48 23.1236C188.718 23.1236 185.48 28.2102 185.48 34.766C185.48 41.3218 188.657 46.5195 194.48 46.5195C200.056 46.5195 203.624 41.4 203.624 34.9676C203.624 28.346 200.381 23.1236 194.402 23.1236H194.48ZM217.316 23.1236C214.551 23.1236 212.979 24.4611 211.851 27.383V24.173C211.807 24.0116 211.712 23.8689 211.58 23.7664C211.448 23.6639 211.286 23.6073 211.118 23.6051H207.415C207.224 23.601 207.04 23.6685 206.897 23.7943C206.755 23.9201 206.665 24.095 206.645 24.2841V45.3261C206.657 45.5208 206.737 45.7051 206.872 45.8461C207.007 45.987 207.188 46.0755 207.382 46.0956H211.386C211.588 46.0894 211.78 46.0064 211.923 45.8634C212.066 45.7204 212.149 45.5282 212.155 45.3261V33.9964C212.097 32.6287 212.329 31.2642 212.834 29.9922C212.996 29.5349 213.284 29.1329 213.665 28.8328C214.046 28.5326 214.504 28.3467 214.987 28.2966C217.752 28.2966 217.485 31.6424 217.485 33.9594V45.4001C217.51 45.581 217.598 45.7475 217.732 45.8713C217.866 45.9951 218.039 46.0686 218.222 46.0792H222.23C222.418 46.0761 222.599 46.0061 222.74 45.8816C222.881 45.7571 222.973 45.5864 222.999 45.4001V32.1692C222.999 30.1115 222.999 27.2966 221.962 25.6134C221.475 24.8207 220.785 24.1717 219.965 23.7328C219.144 23.2939 218.221 23.0809 217.291 23.1154L217.316 23.1236ZM169.244 23.4816C169.049 23.4816 168.862 23.5592 168.724 23.6974C168.585 23.8355 168.508 24.0229 168.508 24.2183V27.239C168.498 27.4326 168.565 27.6224 168.694 27.7667C168.824 27.9109 169.006 27.9979 169.199 28.0085H176.101L168.281 39.5933C167.907 40.2134 167.714 40.9265 167.726 41.651V44.717C167.721 44.8078 167.735 44.8986 167.766 44.9842C167.796 45.0698 167.844 45.1484 167.905 45.2157C167.966 45.283 168.04 45.3376 168.122 45.3763C168.204 45.415 168.293 45.4371 168.384 45.4413C168.48 45.4447 168.575 45.4293 168.664 45.396C170.801 44.2589 173.184 43.6643 175.605 43.6643C178.025 43.6643 180.409 44.2589 182.545 45.396C182.634 45.4319 182.73 45.4497 182.826 45.4484C182.922 45.4471 183.017 45.4267 183.105 45.3884C183.193 45.3501 183.272 45.2947 183.339 45.2253C183.405 45.156 183.457 45.0741 183.492 44.9845C183.528 44.8928 183.546 44.795 183.545 44.6964V41.544C183.532 41.3097 183.456 41.0832 183.327 40.8874C183.198 40.6916 183.019 40.5334 182.809 40.4288C180.512 39.1904 177.92 38.6054 175.315 38.7373L182.13 28.6999C182.619 28.1722 182.965 27.5274 183.134 26.8274V24.2594C183.144 24.0658 183.077 23.876 182.947 23.7317C182.818 23.5875 182.636 23.5005 182.442 23.4899H169.273L169.244 23.4816ZM194.468 27.4859C195.081 27.4482 195.687 27.6325 196.175 28.0051C196.663 28.3777 197.001 28.9136 197.126 29.5148C197.578 31.3374 197.769 33.2148 197.694 35.0911C197.694 37.7579 197.558 42.2601 194.472 42.2601C191.385 42.2601 191.365 36.6838 191.365 34.1363C191.365 31.5889 191.5 27.4447 194.398 27.4447L194.468 27.4859ZM105.575 35.124V36.0047C105.727 37.4946 105.473 38.9979 104.839 40.3547C104.593 40.8873 104.207 41.3431 103.722 41.6729C103.237 42.0028 102.671 42.1944 102.086 42.2272C100.546 42.2272 99.6451 40.9926 99.6451 39.2065C99.5999 35.7496 102.711 35.1364 105.588 35.1364L105.575 35.124ZM157.985 35.124V36.0047C158.141 37.5014 157.886 39.0125 157.248 40.3753C157.003 40.9085 156.617 41.3647 156.132 41.6947C155.647 42.0246 155.081 42.2159 154.495 42.2477C152.956 42.2477 152.054 41.0131 152.054 39.2271C152.054 35.7372 155.088 35.1117 157.964 35.1117L157.985 35.124Z" fill="#201C1D"/>
</svg>
