<svg width="237" height="82" viewBox="0 0 237 82" fill="none" xmlns="http://www.w3.org/2000/svg">
<g clip-path="url(#clip0_48_3130)">
<g clip-path="url(#clip1_48_3130)">
<path d="M236.887 69.1127C235.303 71.9929 234.641 75.2022 233.477 78.2333C232.875 79.8089 232.052 81.129 230.345 81.7174C229.826 81.8955 229.129 82.2904 228.836 81.4968C228.543 80.7032 229.343 80.8 229.783 80.5987C231.347 79.8825 231.969 79.0269 231.101 77.1765C229.933 74.6834 229.213 71.9891 228.33 69.3682C228.195 68.9811 227.664 68.3424 228.44 68.0869C229.217 67.8314 229.807 68.1101 230.064 69.0005C230.777 71.4664 231.553 73.913 232.44 76.8784C233.307 74.1685 234.115 71.9078 234.733 69.6044C235.049 68.4121 235.58 67.8081 236.859 67.9669L236.887 69.1127Z" fill="#1B3139"/>
<path d="M27.7135 54.1681C19.0891 54.1681 10.4608 54.1217 1.83246 54.2107C0.300027 54.2107 0.00301347 53.7926 0.0188525 52.4067C0.094088 46.5999 0.109927 40.8279 0.0188525 35.0405C-0.00886582 33.43 0.292111 32.8726 2.1334 32.8881C13.9216 32.9887 25.7138 32.9461 37.502 32.9268C38.1791 32.9268 39.2245 33.3139 39.4502 32.5048C39.7005 31.5049 39.6868 30.4593 39.4106 29.4659C39.2166 28.7536 38.2504 29.0788 37.6327 29.0788C25.9118 29.0788 14.1869 29.0091 2.46601 29.1175C0.442568 29.1175 -0.0207084 28.6181 0.00700997 26.6902C0.121843 18.3942 0.090165 10.0944 0.00700997 1.7945C0.00700997 0.373766 0.335672 -0.0249663 1.84038 -0.0172239C19.097 0.0369731 36.3523 0.0369731 53.6064 -0.0172239C54.9289 -0.0172239 55.4239 0.230525 55.4041 1.64352C55.3249 7.68777 55.3249 13.7333 55.4041 19.7801C55.4279 21.3286 54.8656 21.5338 53.4638 21.5261C42.1389 21.468 30.81 21.5261 19.4811 21.4603C17.9447 21.4603 17.5408 21.8474 17.5012 23.3649C17.4458 25.0992 18.3605 24.9792 19.5445 24.9792C30.806 24.9792 42.0676 24.9985 53.3331 24.9327C54.9685 24.9327 55.5823 25.1921 55.5585 26.9961C55.4476 35.4857 55.4793 43.9791 55.5585 52.4687C55.5585 53.8236 55.1903 54.1836 53.8083 54.1759C45.1048 54.1371 36.4091 54.1681 27.7135 54.1681ZM28.8301 13.7682C25.2109 13.7682 21.5877 13.7682 17.9645 13.7682C17.4775 13.7682 16.836 13.5436 16.5865 14.1862C16.1034 15.4289 17.7349 17.6471 19.1168 17.6471C25.2426 17.6471 31.3683 17.5581 37.4901 17.7052C39.47 17.7516 40.2105 17.1129 40.6579 15.3167C41.0262 13.8417 40.5431 13.7217 39.2997 13.7411C35.8151 13.803 32.3226 13.7682 28.8301 13.7682ZM28.5806 40.2085C32.2632 40.2085 35.9458 40.2085 39.6284 40.2085C40.0244 40.2085 40.5708 40.4834 40.8163 39.8911C41.2677 38.8304 39.6799 36.4302 38.4999 36.407C32.3187 36.407 26.1335 36.5425 19.9603 36.3296C17.6517 36.2522 17.0102 37.1503 16.7013 39.0394C16.539 40.0305 16.7251 40.2356 17.723 40.2008C21.3501 40.1737 24.9654 40.2085 28.5806 40.2085ZM30.9565 8.28652C30.9606 7.93364 30.8911 7.58364 30.7521 7.25796C30.6131 6.93227 30.4075 6.63774 30.1481 6.3924C29.8886 6.14706 29.5806 5.95607 29.243 5.83112C28.9054 5.70617 28.5453 5.64989 28.1847 5.66571C27.8224 5.65296 27.4615 5.71389 27.1246 5.84466C26.7877 5.97543 26.4822 6.17318 26.2276 6.42539C25.973 6.67759 25.7747 6.97876 25.6454 7.3098C25.516 7.64083 25.4584 7.99452 25.4762 8.34846C25.4762 9.71113 26.9215 11.1048 28.248 11.0777C28.9827 11.0457 29.6763 10.7375 30.184 10.2174C30.6916 9.69723 30.9741 9.00545 30.9723 8.28652H30.9565ZM28.2559 48.5239C28.9799 48.4642 29.656 48.1457 30.1549 47.6294C30.6538 47.113 30.9406 46.4351 30.9604 45.725C30.9347 45.0459 30.6398 44.4031 30.138 43.9328C29.6362 43.4624 28.967 43.2014 28.2718 43.2049C27.9114 43.1903 27.5516 43.2469 27.214 43.3713C26.8764 43.4957 26.5679 43.6853 26.307 43.9288C26.0461 44.1724 25.838 44.4648 25.6952 44.7887C25.5525 45.1126 25.478 45.4614 25.4762 45.814C25.4991 46.527 25.7996 47.2044 26.3162 47.7081C26.8328 48.2117 27.5267 48.5035 28.2559 48.5239Z" fill="#0976C1"/>
<path d="M99.9027 13.2019V15.3233C99.9027 17.8705 99.9026 17.8241 97.3565 17.7505C96.4576 17.7234 95.9944 17.5066 96.0379 16.5892C96.0189 16.2692 95.9765 15.9509 95.9112 15.6368C95.5152 12.0289 95.5152 12.0444 91.7495 11.5256C89.5983 11.1801 87.3936 11.3475 85.3228 12.0134C82.9865 12.8109 81.6759 14.4445 81.4779 16.8756C81.2799 19.3068 82.2936 21.134 84.4358 22.3224C86.5028 23.4838 88.8232 24.0374 91.0526 24.8039C92.3553 25.2529 93.6739 25.671 94.9292 26.2285C99.4275 28.2299 101.265 31.4507 100.999 36.642C100.774 40.9197 98.1643 44.2799 93.8125 45.5458C88.1382 47.2104 82.5035 46.6491 76.9321 44.9264C76.1401 44.6787 75.7441 44.2877 75.7441 43.4205C75.7877 41.2991 75.7798 39.1622 75.7441 37.0563C75.7441 36.282 75.9302 35.7168 76.8251 35.9259C77.7201 36.1349 79.0268 35.1516 79.4624 36.7466C79.5 36.9356 79.5238 37.1271 79.5336 37.3195C80.0682 41.8488 80.0642 41.872 84.7644 42.4024C87.3304 42.6889 89.9121 42.7121 92.3434 41.7017C96.6992 39.8939 97.4357 33.8664 93.6343 31.0752C91.203 29.2867 88.1936 28.888 85.4337 27.8892C84.6417 27.5989 83.8141 27.3705 83.0262 27.0531C78.1952 25.1175 76.2153 22.0631 76.4727 16.9879C76.6984 12.5786 79.4386 9.16806 83.9646 7.87894C89.0014 6.44272 93.9828 6.97695 98.9127 8.49446C99.7047 8.73448 99.9225 9.16806 99.8947 9.91133C99.871 11.0146 99.9027 12.114 99.9027 13.2019Z" fill="#1B3139"/>
<path d="M197.735 21.6829C200.424 20.088 202.855 18.7408 205.753 18.4891C211.867 17.9588 215.332 20.8119 215.502 26.7929C215.632 31.4203 215.632 36.0477 215.502 40.6751C215.455 42.3745 215.95 43.0481 217.664 42.8507C219.082 42.6881 219.644 43.2378 219.518 44.6972C219.434 45.6844 219.074 45.8586 218.211 45.8586C215.043 45.8276 211.883 45.8276 208.731 45.8586C207.773 45.8586 207.246 45.6805 207.361 44.5811C207.448 43.7178 207.092 42.6068 208.585 42.7578C210.711 42.9746 210.961 41.8945 210.909 40.1447C210.763 36.0373 210.885 31.9184 210.766 27.811C210.632 23.1152 208.232 21.4584 203.639 22.7397C203.243 22.8443 202.887 22.9682 202.522 23.1036C198.103 24.7528 197.818 25.1554 197.818 29.7466C197.818 33.3469 197.941 36.951 197.767 40.5434C197.683 42.3048 198.357 42.8662 199.956 42.7268C201.421 42.5991 201.869 43.1759 201.77 44.6043C201.699 45.6147 201.303 45.7347 200.455 45.727C197.232 45.696 194.007 45.696 190.782 45.727C189.958 45.727 189.36 45.6883 189.514 44.6159C189.637 43.7914 189.178 42.6262 190.702 42.7655C192.793 42.9591 193.078 41.9448 193.05 40.1641C192.958 30.6538 192.958 21.1409 193.05 11.6255C193.05 10.0422 192.746 9.24856 190.976 9.24856C190.314 9.24856 189.047 9.66279 189.182 8.18012C189.285 7.01875 189.51 6.10514 191.162 6.28709C192.801 6.44 194.452 6.44 196.092 6.28709C197.549 6.17482 197.802 6.74777 197.782 8.03301C197.668 12.4965 197.735 16.9561 197.735 21.6829Z" fill="#1B3139"/>
<path d="M185.793 23.6328V24.7941C185.793 27.2678 185.793 27.1749 183.33 27.0472C182.055 26.9813 182.055 26.2729 181.94 25.4096C181.544 22.4211 181.544 22.514 178.515 22.3475C171.197 21.9604 168.58 26.3813 168.714 32.8966C168.889 41.3784 175.086 45.0444 183.021 41.51C183.88 41.1229 184.51 40.9642 184.735 42.0326C184.933 42.9772 186.66 44.1386 184.735 44.878C179.623 46.8445 174.373 47.5452 169.292 44.878C164.905 42.5785 163.832 38.3937 163.491 33.9379C163.491 33.876 163.491 33.8102 163.491 33.7482C163.183 21.5346 173.094 15.027 184.767 19.7499C185.559 20.0712 185.912 20.4506 185.809 21.2984C185.757 22.0756 185.752 22.855 185.793 23.6328Z" fill="#1B3139"/>
<path d="M107.769 31.5894C107.769 29.1467 107.706 26.704 107.793 24.2651C107.844 22.8715 107.444 22.2405 105.908 22.3605C105.278 22.4108 104.154 22.9063 104.09 21.6095C104.039 20.6068 103.667 19.55 105.389 19.159C107.789 18.6093 108.779 16.5266 109.123 14.3974C109.404 12.6554 110.489 13.0618 111.547 12.996C112.976 12.907 112.675 13.9096 112.687 14.6955C112.758 18.8957 112.754 18.8958 116.999 18.8958C117.59 18.9442 118.183 18.9442 118.773 18.8958C120.753 18.5551 121.232 19.3797 121.113 21.1991C121.03 22.4457 120.646 22.6741 119.482 22.6044C117.645 22.496 115.799 22.6044 113.938 22.5657C113.012 22.5424 112.651 22.856 112.659 23.7812C112.711 28.9222 112.659 34.0631 112.762 39.2041C112.814 41.7088 114.303 42.905 116.904 42.6882C118.086 42.6245 119.254 42.4004 120.373 42.0224C121.371 41.6352 121.612 41.8753 122.091 42.7502C123.006 44.4186 122.527 45.0729 120.773 45.5181C118.595 46.0446 116.417 46.4897 114.168 46.3349C110.426 46.0794 108.228 44.2599 107.955 40.652C107.729 37.6518 107.908 34.6206 107.908 31.6011L107.769 31.5894Z" fill="#1B3139"/>
<path d="M145.962 32.0564C145.962 29.4859 145.887 26.9154 145.99 24.3488C146.046 22.8894 145.701 22.1809 144.01 22.3397C143.404 22.4016 142.217 22.9474 142.153 21.6661C142.098 20.6479 141.714 19.5292 143.595 19.1382C145.86 18.662 146.869 16.5793 147.202 14.4927C147.495 12.6926 148.647 13.0178 149.784 13.0294C151.296 13.0294 150.698 14.1908 150.71 14.876C150.789 18.8827 150.766 18.8827 154.824 18.8827C155.677 18.9369 156.533 18.9369 157.386 18.8827C158.824 18.7007 159.061 19.3124 159.117 20.6015C159.188 22.1771 158.788 22.6416 157.137 22.5835C155.066 22.51 152.282 21.6235 151.094 22.9707C150.073 24.132 150.778 26.7644 150.762 28.7465C150.762 31.8938 150.73 35.0411 150.762 38.1884C150.801 41.897 152.346 43.1552 156.115 42.5667C156.898 42.4882 157.667 42.3113 158.404 42.0403C159.465 41.5757 159.766 41.9899 160.249 42.8842C161.093 44.4327 160.519 45.0134 159.002 45.3889C156.828 45.9308 154.674 46.407 152.397 46.3025C148.437 46.1166 146.038 43.8171 145.966 39.9575C145.923 37.3251 145.962 34.6927 145.962 32.0564Z" fill="#1B3139"/>
<path d="M136.069 30.8714V40.1314C136.069 42.6902 136.069 42.6825 138.647 42.8412C139.463 42.8954 140.373 42.7135 140.385 44.0645C140.385 45.3149 140.172 45.915 138.679 45.8685C135.115 45.764 131.551 45.8066 128.015 45.8685C127.005 45.8685 126.55 45.6208 126.653 44.5794C126.74 43.7277 126.396 42.8606 127.869 42.6825C131.092 42.2954 131.08 42.2025 131.08 39.001C131.08 34.0497 131.021 29.0984 131.12 24.1472C131.147 22.7032 130.795 22.0373 129.243 21.9406C128.51 21.8941 127.263 22.1419 127.532 20.5431C127.742 19.3507 128.09 18.7158 129.488 18.8707C131.618 19.1107 134.489 17.9726 135.709 19.3236C136.77 20.485 136.038 23.2297 136.065 25.2775C136.089 27.1396 136.069 29.0055 136.069 30.8714Z" fill="#1B3139"/>
<path d="M179.831 73.0393C179.831 71.6921 179.831 70.3295 179.831 68.9939C179.831 68.1461 180.678 67.5693 180.964 68.1616C181.755 69.7914 182.286 68.4906 182.884 68.2119C183.759 67.8248 184.927 67.4377 185.486 68.0803C186.745 69.5359 187.549 68.8158 188.808 68.1074C190.546 67.1318 192.585 68.2893 192.831 70.4301C193.088 72.6483 192.942 74.913 192.973 77.1583C192.973 77.8125 192.637 78.0448 191.984 78.037C191.235 78.037 191.148 77.5919 191.152 77.0228C191.152 75.1607 191.152 73.2987 191.152 71.4366C191.152 70.3682 191.354 69.0171 189.663 69.0597C188.115 69.0945 187.323 70.1127 187.287 71.5799C187.224 73.3142 187.287 75.064 187.264 76.7828C187.264 77.3209 187.446 77.979 186.495 78.0293C185.426 78.0835 185.581 77.3712 185.581 76.748C185.581 74.9478 185.581 73.1516 185.581 71.3515C185.581 70.3179 185.581 69.0868 184.131 69.0636C182.682 69.0403 181.657 69.9385 181.581 71.4405C181.494 73.2329 181.561 75.033 181.558 76.8331C181.558 77.3906 181.728 78.0216 180.766 78.037C179.875 78.037 179.855 77.5299 179.863 76.9067C179.835 75.6021 179.827 74.3246 179.831 73.0393Z" fill="#1B3139"/>
<path d="M198.054 77.6917C198.054 78.7602 198.054 79.7822 198.054 80.7887C198.054 81.4003 198.054 81.95 197.186 81.9849C196.319 82.0197 196.284 81.5087 196.284 80.8777C196.284 76.9639 196.284 73.0462 196.284 69.1325C196.284 68.695 196.216 68.1685 196.81 68.0292C197.301 67.9169 197.602 68.0834 197.832 68.637C198.141 69.4422 198.481 68.7066 198.77 68.5363C201.36 67.0149 203.74 67.8976 204.571 70.7429C204.987 72.1727 204.987 73.6875 204.571 75.1174C203.72 78.253 201.863 78.9924 198.054 77.6917ZM198.093 73.0153H198.054C198.082 73.5311 198.082 74.048 198.054 74.5638C197.907 75.9148 198.64 76.6039 199.879 76.8439C201.233 77.1072 202.255 76.5613 202.651 75.2954C203.124 73.7445 203.067 72.0851 202.488 70.5687C202.156 69.6744 201.487 69.0202 200.414 69.1286C199.34 69.237 198.402 69.8177 198.133 70.921C197.959 71.5752 198.093 72.3107 198.093 73.0153Z" fill="#1B3139"/>
<path d="M81.9669 64.9978C83.0242 64.7229 83.3132 65.354 83.5508 66.074C84.7388 69.7246 85.9267 73.3828 87.1978 77.0179C87.5937 78.1444 86.9048 78.0128 86.2276 78.0012C85.7525 78.0012 85.6139 77.6838 85.4357 77.3005C85.0397 76.445 85.2615 75.0513 84.3111 74.7958C83.0242 74.4552 81.5789 74.6991 80.2009 74.6642C79.4366 74.6449 79.2149 75.1133 79.0406 75.7133C78.8664 76.3133 78.6447 76.9289 78.415 77.5289C78.1656 78.2102 77.5439 78.0786 77.0885 77.947C76.6331 77.8154 76.8153 77.3121 76.9261 76.9714C78.1576 73.259 79.4129 69.5581 80.6166 65.8379C80.8701 65.0714 81.2344 64.7307 81.9669 64.9978ZM81.8719 66.5114C81.3413 68.1064 80.9295 69.3103 80.5414 70.522C79.5911 73.5067 79.7495 73.6732 82.9727 73.4099C83.7092 73.3519 84.0854 73.2474 83.8043 72.4189C83.1865 70.6149 82.6163 68.7955 81.8719 66.5114Z" fill="#1B3139"/>
<path d="M147.14 68.6011C147.14 67.2074 147.14 65.9919 147.14 64.7763C147.14 64.2343 147.299 63.9169 147.932 63.9595C148.443 63.9943 148.803 64.1453 148.803 64.7337C148.803 68.8966 148.803 73.0594 148.803 77.2223C148.803 77.7874 148.277 78.252 148.011 77.9539C146.934 76.7926 146.174 77.8765 145.303 78.1552C144.477 78.392 143.592 78.3289 142.81 77.9774C142.029 77.6259 141.403 77.0098 141.05 76.2428C140.565 75.1868 140.355 74.0296 140.44 72.8749C140.52 68.6514 142.994 67.01 147.14 68.6011ZM147.14 73.1691C147.14 72.5458 147.14 72.0348 147.14 71.5238C147.144 71.1451 147.053 70.7712 146.874 70.4354C146.695 70.0996 146.433 69.8122 146.113 69.5989C145.793 69.3855 145.424 69.2527 145.039 69.2124C144.654 69.172 144.264 69.2254 143.905 69.3676C142.068 70.0605 142.072 71.6903 142.072 73.2388C142.072 74.7873 142.135 76.3009 143.905 76.8971C145.176 77.3268 146.206 76.688 146.915 75.6815C147.485 74.8879 147.01 73.9317 147.156 73.1691H147.14Z" fill="#1B3139"/>
<path d="M105.548 69.2508C105.35 69.2857 104.831 69.3515 104.324 69.4599C103.817 69.5683 103.208 69.6573 103.053 68.9876C102.899 68.3179 103.505 68.3295 103.924 68.1824C107.698 66.8662 109.721 68.2753 109.82 72.131C109.864 73.8073 109.23 75.6151 110.49 77.1404C110.591 77.2686 110.639 77.4303 110.622 77.5918C110.605 77.7533 110.525 77.9022 110.399 78.0075C109.947 78.5069 109.48 78.1353 109.211 77.8411C108.553 77.0668 108.062 77.2914 107.314 77.7753C106.713 78.1834 105.993 78.3901 105.262 78.3642C104.531 78.3384 103.828 78.0815 103.259 77.632C102.774 77.2888 102.413 76.804 102.228 76.2475C102.043 75.6909 102.044 75.0913 102.23 74.5351C102.626 73.095 103.813 72.3981 105.279 72.2123C105.605 72.1831 105.929 72.134 106.249 72.0652C106.985 71.8755 108.276 72.6227 108.185 71.0006C108.122 69.518 107.1 69.2547 105.548 69.2508ZM103.841 75.1157C103.758 76.2771 104.388 76.9275 105.516 77.0513C106.835 77.1984 108.252 75.8087 108.335 74.4499C108.403 73.424 108.094 72.9633 106.926 72.9827C104.958 73.0175 103.889 73.664 103.841 75.1157Z" fill="#1B3139"/>
<path d="M214.711 73.577C214.916 74.692 214.224 76.1165 215.427 77.2431C215.697 77.4908 215.408 77.8431 215.154 78.056C215.091 78.108 215.018 78.1469 214.939 78.1703C214.86 78.1936 214.777 78.201 214.695 78.1919C214.613 78.1829 214.534 78.1576 214.463 78.1176C214.391 78.0776 214.328 78.0237 214.279 77.9593C213.455 76.7979 212.77 77.4792 211.903 77.936C211.504 78.1617 211.061 78.3024 210.603 78.349C210.144 78.3955 209.681 78.3468 209.243 78.2061C208.805 78.0654 208.403 77.8358 208.062 77.5324C207.722 77.229 207.45 76.8587 207.266 76.4456C206.542 74.6997 207.508 72.9228 209.595 72.3111C210.297 72.1642 211.011 72.0762 211.729 72.0479C212.323 71.9782 213.162 72.2957 213.127 71.2311C213.103 70.4336 212.952 69.7058 212.002 69.4271C211.044 69.1868 210.036 69.2177 209.096 69.5161C208.517 69.6671 208.023 69.6748 207.908 68.9858C207.793 68.2967 208.391 68.3122 208.779 68.1689C212.473 66.8101 214.742 68.3006 214.742 72.0711C214.715 72.5047 214.711 72.9693 214.711 73.577ZM208.771 74.7384C208.723 76.2869 209.357 76.9566 210.489 77.0611C211.832 77.1695 213.008 75.8998 213.059 74.4984C213.099 73.4996 212.881 72.9073 211.669 73.008C210.204 73.1164 208.902 73.3486 208.771 74.7384Z" fill="#1B3139"/>
<path d="M226.212 73.6673C226.212 74.7551 226.212 75.8468 226.212 76.9384C226.212 77.5965 226.101 78.0495 225.249 78.0108C224.398 77.972 224.485 77.4765 224.485 76.9539C224.485 75.0919 224.509 73.2337 224.485 71.3716C224.461 70.3032 224.608 69.0489 222.933 68.9947C222.242 68.9653 221.566 69.2051 221.056 69.6616C220.545 70.1181 220.24 70.7539 220.209 71.4297C220.149 73.2259 220.209 75.0222 220.209 76.8184C220.209 77.403 220.272 77.9798 219.361 78.0069C218.45 78.034 218.446 77.5036 218.446 76.8804C218.446 74.3138 218.446 71.7471 218.446 69.1805C218.446 68.7392 218.375 68.205 218.922 68.0192C219.027 67.9678 219.145 67.944 219.263 67.95C219.38 67.9561 219.495 67.9918 219.594 68.0537C219.694 68.1156 219.775 68.2016 219.831 68.3034C219.887 68.4052 219.914 68.5193 219.912 68.6347C220.011 69.3509 220.331 68.9754 220.672 68.7857C224.339 66.761 226.215 67.8334 226.215 71.933L226.212 73.6673Z" fill="#1B3139"/>
<path d="M120.092 73.6977C120.512 76.7676 121.826 77.5689 124.642 76.512C125.176 76.3107 125.667 76.0398 125.944 76.6979C126.257 77.4257 125.517 77.5031 125.097 77.716C121.929 79.3187 118.69 77.5999 118.365 74.1467C118.188 72.9369 118.306 71.7032 118.71 70.5465C119.565 68.3864 121.533 67.3605 123.731 67.9761C125.616 68.5064 126.974 70.9762 126.538 72.9467C126.356 73.7751 125.79 73.6938 125.204 73.6938L120.092 73.6977ZM123.026 69.0987C121.359 69.0987 119.949 70.4497 120.254 71.6459C120.706 73.3106 122.234 72.2266 123.236 72.4202C123.85 72.5286 125.188 73.0396 124.978 71.4872C124.82 70.1788 124.222 69.1374 123.026 69.0987Z" fill="#1B3139"/>
<path d="M167.734 73.0423C167.734 69.8098 169.461 67.82 172.233 67.8084C175.005 67.7968 176.747 69.8485 176.711 73.0461C176.676 76.2437 174.858 78.342 172.205 78.3071C169.425 78.2684 167.719 76.2554 167.734 73.0423ZM174.941 72.9532C174.91 72.508 174.902 72.1209 174.854 71.7415C174.66 70.2627 174.011 69.1827 172.308 69.1014C170.605 69.0201 169.932 70.1156 169.603 71.5635C169.358 72.7585 169.421 73.9943 169.786 75.1598C169.895 75.635 170.164 76.0608 170.549 76.37C170.934 76.6792 171.414 76.8541 171.912 76.867C172.433 76.9439 172.966 76.8534 173.43 76.6091C173.894 76.3648 174.265 75.9799 174.486 75.5121C174.937 74.6759 174.838 73.77 174.941 72.9532Z" fill="#1B3139"/>
<path d="M129.627 73.0188C129.627 71.6717 129.627 70.309 129.627 68.9695C129.627 68.1179 130.53 67.5837 130.755 68.1953C131.373 69.8677 131.896 68.6482 132.442 68.3385C134.957 66.9062 137.277 68.1721 137.317 71.0484C137.345 72.984 137.317 74.9196 137.317 76.8358C137.317 77.3894 137.463 78.0398 136.505 78.0243C135.547 78.0088 135.677 77.3971 135.674 76.8203C135.674 75.0202 135.674 73.2201 135.674 71.4006C135.674 70.2974 135.729 69.1166 134.09 69.0082C133.745 68.9847 133.4 69.0285 133.073 69.1371C132.746 69.2457 132.445 69.417 132.187 69.6409C131.929 69.8648 131.719 70.1368 131.57 70.4409C131.421 70.7451 131.335 71.0753 131.318 71.4123C131.25 73.2085 131.318 75.0125 131.318 76.832C131.318 77.401 131.468 77.9933 130.526 78.0359C129.583 78.0785 129.627 77.5133 129.631 76.9016C129.627 75.597 129.627 74.3079 129.627 73.0188Z" fill="#1B3139"/>
<path d="M157.262 71.7269C157.021 67.1356 159.907 64.1625 163.954 64.809C164.282 64.8221 164.603 64.9026 164.897 65.0452C165.368 65.3665 166.405 65.3355 166.057 66.2491C165.732 67.1008 165.083 66.6749 164.433 66.4465C161.574 65.4245 159.495 66.644 159.044 69.6093C158.789 71.0697 158.847 72.5658 159.214 74.0032C159.923 76.5969 162.038 77.5376 164.528 76.4266C165.099 76.1749 165.784 75.3194 166.283 76.4266C166.73 77.4176 165.669 77.5647 165.134 77.8279C164.496 78.1236 163.804 78.2922 163.099 78.324C162.393 78.3557 161.688 78.25 161.025 78.013C160.362 77.7759 159.753 77.4123 159.235 76.9432C158.717 76.4741 158.299 75.909 158.007 75.2807C157.458 74.1758 157.202 72.9538 157.262 71.7269Z" fill="#1B3139"/>
<path d="M133.024 6.44281C134.968 6.47378 136.37 7.74355 136.386 9.48559C136.41 11.6767 134.933 13.1284 132.719 13.0897C130.688 13.051 129.322 11.6225 129.389 9.6056C129.456 7.5887 130.85 6.4041 133.024 6.44281Z" fill="#1B3139"/>
<path d="M102.122 65.2492C102.185 66.7164 101.049 66.4725 100.229 66.3873C98.7999 66.2325 98.4752 66.7745 98.5227 68.0984C98.6296 70.8508 98.5821 73.6149 98.5227 76.3712C98.5227 76.9635 98.9978 77.9506 97.7782 77.9777C96.4438 78.0087 96.8992 76.9364 96.8873 76.286C96.8398 73.5762 96.7843 70.8934 96.8873 68.2029C96.9467 66.7822 96.5626 66.1473 95.05 66.4067C94.7237 66.4435 94.3942 66.4435 94.0679 66.4067C93.5769 66.3835 92.9592 66.5538 92.979 65.7176C92.979 64.9782 93.4621 64.9434 94.0481 64.9434C96.6062 64.9782 99.1681 64.9898 101.73 65.0092L102.122 65.2492Z" fill="#1B3139"/>
<path d="M115.132 70.4556C115.132 72.0544 115.132 73.6532 115.132 75.252C115.132 76.0069 114.982 76.8005 116.102 77.0173C116.195 77.0456 116.281 77.0919 116.355 77.1536C116.428 77.2152 116.488 77.2909 116.531 77.3759C116.574 77.461 116.599 77.5537 116.604 77.6484C116.61 77.7431 116.595 77.8379 116.562 77.927C116.427 78.2793 116.039 78.2444 115.718 78.2793C114.364 78.4264 113.497 77.8534 113.461 76.514C113.362 72.6157 113.354 68.7174 113.295 64.8191C113.295 64.1223 113.691 63.9713 114.285 63.9403C115.009 63.9055 115.144 64.2655 115.132 64.8849C115.112 66.7431 115.132 68.5974 115.132 70.4556Z" fill="#1B3139"/>
<path d="M102.126 65.2505L101.762 65.026C101.991 64.9292 102.134 64.9718 102.126 65.2505Z" fill="#1B3139"/>
</g>
</g>
<defs>
<clipPath id="clip0_48_3130">
<rect width="236.889" height="82" fill="white"/>
</clipPath>
<clipPath id="clip1_48_3130">
<rect width="236.889" height="82" fill="white"/>
</clipPath>
</defs>
</svg>
