<svg width="331" height="85" viewBox="0 0 331 85" fill="none" xmlns="http://www.w3.org/2000/svg">
<g clip-path="url(#clip0_48_2616)">
<path d="M18.5672 12.7414C22.5018 12.6322 26.4119 12.0848 30.2251 11.1093C31.6647 10.8169 33.0286 10.2313 34.232 9.38894C35.4353 8.54658 36.4524 7.46549 37.2199 6.21301V48.1815L59.7197 28.4563C59.9863 28.9644 60.0765 29.5468 59.9761 30.1117V46.666C59.9761 47.1556 59.673 47.8318 60.2093 48.0649C60.7456 48.2981 61.1652 47.6219 61.5616 47.2722L82.7557 28.6195C82.7557 28.6195 82.9889 28.4796 83.1054 28.3864C83.4785 28.6895 83.292 29.0858 83.292 29.4356V81.7796C83.292 82.7822 83.1521 83.2252 81.9396 83.2252H18.6139L18.5672 12.7414ZM53.541 69.4689H57.0383C58.2041 69.4689 58.1575 69.1657 58.1342 68.3264V61.4715C58.1342 60.6088 57.9243 60.1892 56.9684 60.2125H49.9736C49.1576 60.2125 48.7845 60.4689 48.8079 61.3316V68.4663C48.8079 69.1891 49.0177 69.4922 49.7638 69.4455L53.541 69.4689ZM74.5252 64.8057V61.3083C74.5252 60.1425 74.1988 60.1658 73.3594 60.1658H66.5046C65.6885 60.1658 65.2921 60.399 65.3155 61.285V68.4196C65.3155 69.0958 65.502 69.4222 66.2481 69.3989H73.5926C74.3154 69.3989 74.5952 69.1657 74.5718 68.443C74.5252 67.3005 74.5252 66.2046 74.5252 64.8756V64.8057ZM32.9531 64.8057V68.5829C32.9531 69.2124 33.1163 69.5155 33.8158 69.4922H41.0903C41.7432 69.4922 41.9996 69.2823 41.9996 68.6062V61.1917C41.9996 60.5622 41.8131 60.2591 41.1136 60.2591H33.8624C33.1863 60.2591 32.9531 60.5156 32.9764 61.1684C32.9997 62.3575 32.9764 63.5699 32.9764 64.7824L32.9531 64.8057Z" fill="#71B3DB"/>
<path d="M18.5672 12.7417V83.1788H1.01039C-0.155404 83.1788 0.00781035 82.5259 0.00781035 81.8498V6.77283C2.54924 10.3868 6.44298 11.1329 10.2668 11.9023C12.9928 12.4957 15.7775 12.7773 18.5672 12.7417Z" fill="#5797C8"/>
<path d="M7.11869 8.19503C6.31512 7.95679 5.56366 7.56919 4.90369 7.05256C3.48142 5.86345 3.50474 4.72097 5.02027 3.64844C6.74714 2.52889 8.7108 1.82644 10.756 1.59665C16.6425 0.541761 22.6836 0.716405 28.4993 2.1096C29.7239 2.39009 30.8912 2.87907 31.9501 3.55518C33.6288 4.69766 33.6521 6.07329 31.9501 7.23908C31.307 7.70436 30.5778 8.03722 29.805 8.21835C29.2539 7.78124 28.5918 7.50669 27.8931 7.42561C23.1744 6.31323 18.2961 6.04485 13.4839 6.63287C11.2768 6.70661 9.10917 7.2386 7.11869 8.19503Z" fill="#B7D502"/>
<path d="M7.11966 8.1953C9.13156 7.22942 11.324 6.6972 13.5548 6.63314C18.344 6.05344 23.1979 6.32179 27.8941 7.42588C28.5927 7.50696 29.2549 7.78152 29.806 8.21862C25.6967 9.48763 21.3913 10.0011 17.0988 9.73415C13.711 9.76649 10.3404 9.24673 7.11966 8.1953Z" fill="#86BC02"/>
<path d="M116.494 48.4383H111.831L110.455 44.1948H103.53L102.178 48.4383H97.5148L104.51 29.296H109.499L116.494 48.4383ZM109.499 40.8607L107.447 34.4255C107.274 33.8644 107.165 33.2857 107.121 32.7001C107.072 33.2717 106.954 33.8353 106.771 34.3789L104.696 40.8607H109.499Z" fill="black"/>
<path d="M129.224 48.4379H116.96V46.6892L123.815 37.8758H117.636V34.7748H129.294V36.8499L122.789 45.3368H129.341L129.224 48.4379Z" fill="black"/>
<path d="M144.473 48.4379H140.276V46.3627C139.841 47.0838 139.224 47.6784 138.488 48.0874C137.752 48.4964 136.921 48.7057 136.079 48.6943C132.908 48.6943 131.416 46.7591 131.416 42.9353V34.7748H135.636V42.6555C135.636 44.5907 136.406 45.5467 137.968 45.5467C138.311 45.5564 138.651 45.4904 138.966 45.3534C139.28 45.2164 139.56 45.0117 139.786 44.754C140.272 44.1394 140.513 43.3671 140.463 42.5856V34.7748H144.473V48.4379Z" fill="black"/>
<path d="M156.97 38.5755C156.418 38.3108 155.808 38.1904 155.198 38.2257C154.783 38.212 154.371 38.2956 153.994 38.4697C153.618 38.6438 153.287 38.9036 153.029 39.2283C152.476 40.0353 152.205 41.0027 152.26 41.9796V48.508H148.04V34.775H152.26V37.3164C152.451 36.5111 152.911 35.795 153.563 35.2863C154.216 34.7776 155.023 34.5068 155.85 34.5185C156.207 34.5117 156.562 34.5669 156.9 34.6817L156.97 38.5755Z" fill="black"/>
<path d="M171.122 42.8888H162.192C162.332 44.8706 163.591 45.8499 165.946 45.8499C167.343 45.8804 168.719 45.5081 169.91 44.7773V47.8317C168.378 48.5699 166.689 48.9221 164.99 48.8576C164.052 48.9127 163.112 48.7779 162.226 48.4614C161.341 48.145 160.529 47.6532 159.838 47.0157C159.207 46.3256 158.721 45.5161 158.409 44.6351C158.097 43.754 157.964 42.8193 158.019 41.8862C157.968 40.903 158.115 39.9195 158.451 38.9943C158.788 38.069 159.307 37.2209 159.977 36.5002C160.609 35.8503 161.368 35.337 162.206 34.992C163.044 34.6471 163.944 34.478 164.85 34.4951C165.711 34.438 166.575 34.569 167.38 34.8791C168.185 35.1891 168.913 35.6707 169.514 36.2904C170.669 37.6154 171.263 39.3381 171.169 41.0934L171.122 42.8888ZM167.205 40.2774C167.205 38.3189 166.428 37.3396 164.874 37.3396C164.535 37.3515 164.204 37.4369 163.902 37.5899C163.6 37.7429 163.335 37.9598 163.125 38.2256C162.626 38.8204 162.317 39.5515 162.239 40.324L167.205 40.2774Z" fill="black"/>
<path d="M181.895 48.4383V29.296H187.188C193.949 29.296 197.33 32.4048 197.33 38.6224C197.384 39.9426 197.161 41.2595 196.675 42.4883C196.189 43.7171 195.451 44.8305 194.509 45.757C193.493 46.6786 192.304 47.3901 191.011 47.8502C189.719 48.3104 188.348 48.5103 186.978 48.4383H181.895ZM184.11 31.2312V46.3166H186.955C189.1 46.4458 191.211 45.7256 192.83 44.3114C193.556 43.556 194.117 42.6583 194.478 41.6751C194.839 40.6919 194.993 39.6445 194.929 38.599C194.929 33.6872 192.317 31.2312 187.094 31.2312H184.11Z" fill="black"/>
<path d="M210.573 48.4382H208.405V46.3165C207.998 47.0709 207.391 47.6985 206.65 48.1304C205.91 48.5622 205.065 48.7817 204.208 48.7647C203.044 48.8393 201.897 48.4542 201.014 47.6921C200.626 47.3245 200.322 46.8785 200.121 46.384C199.92 45.8894 199.827 45.3577 199.848 44.8243C199.848 42.2595 201.363 40.7673 204.371 40.3476L208.475 39.7647C208.475 37.4332 207.519 36.2907 205.653 36.2907C204.007 36.2864 202.415 36.8834 201.177 37.9694V35.6378C202.573 34.7647 204.194 34.3189 205.84 34.3555C209.058 34.3555 210.643 36.0575 210.643 39.4616L210.573 48.4382ZM208.405 41.4435L205.094 41.8865C204.27 41.9554 203.473 42.2105 202.762 42.6326C202.478 42.8622 202.256 43.16 202.117 43.4983C201.979 43.8367 201.928 44.2046 201.97 44.5678C201.966 44.8758 202.028 45.181 202.153 45.4626C202.278 45.7442 202.462 45.9957 202.692 46.1999C203.228 46.6417 203.911 46.8663 204.604 46.8294C205.107 46.8446 205.607 46.7502 206.07 46.553C206.533 46.3557 206.948 46.0602 207.286 45.687C208.001 44.8968 208.385 43.8615 208.358 42.7958L208.405 41.4435Z" fill="black"/>
<path d="M221.065 48.322C220.425 48.6247 219.721 48.7687 219.013 48.7416C216.682 48.7416 215.423 47.4126 215.423 44.7313V36.6407H213.091V34.7755H215.423V31.418L217.614 30.7185V34.7755H221.065V36.6407H217.614V44.335C217.556 45.0283 217.72 45.7222 218.081 46.3168C218.277 46.5238 218.517 46.6837 218.783 46.7847C219.05 46.8856 219.336 46.9249 219.62 46.8997C220.14 46.91 220.649 46.7458 221.065 46.4334V48.322Z" fill="black"/>
<path d="M233.772 48.4384H231.58V46.3166C231.171 47.0746 230.561 47.7046 229.816 48.1367C229.071 48.5688 228.221 48.7862 227.36 48.7648C226.197 48.8345 225.052 48.45 224.166 47.6923C223.782 47.3235 223.481 46.8767 223.284 46.3821C223.087 45.8874 222.998 45.3563 223.023 44.8244C223.023 42.2597 224.516 40.7675 227.523 40.3478L231.627 39.7649C231.627 37.4333 230.694 36.2908 228.806 36.2908C227.167 36.2922 225.584 36.8888 224.352 37.9696V35.638C225.748 34.7636 227.369 34.3177 229.016 34.3556C232.233 34.3556 233.842 36.0577 233.842 39.4618L233.772 48.4384ZM231.58 41.4436L228.293 41.8866C227.469 41.9555 226.672 42.2106 225.961 42.6327C225.692 42.8736 225.482 43.1738 225.348 43.5097C225.215 43.8455 225.161 44.2078 225.192 44.568C225.184 44.8744 225.242 45.179 225.363 45.4607C225.483 45.7425 225.664 45.9947 225.891 46.2001C226.429 46.6379 227.11 46.862 227.803 46.8296C228.31 46.845 228.813 46.7509 229.28 46.5537C229.747 46.3566 230.166 46.061 230.508 45.6871C231.217 44.8946 231.593 43.8589 231.557 42.796L231.58 41.4436Z" fill="black"/>
<path d="M255.41 31.2312H247.925V37.8529H254.92V39.8814H247.925V48.3451H245.594V29.296H255.316L255.41 31.2312Z" fill="black"/>
<path d="M267.533 48.4382H265.342V46.3165C264.935 47.0708 264.328 47.6985 263.587 48.1303C262.847 48.5622 262.002 48.7817 261.145 48.7646C259.981 48.8343 258.836 48.4498 257.951 47.6921C257.564 47.3245 257.259 46.8785 257.058 46.384C256.857 45.8894 256.764 45.3577 256.785 44.8243C256.785 42.2595 258.3 40.7673 261.308 40.3476L265.412 39.7647C265.412 37.4331 264.479 36.2907 262.591 36.2907C260.95 36.2834 259.365 36.8811 258.137 37.9694V35.6378C259.532 34.7609 261.154 34.3148 262.8 34.3555C266.018 34.3555 267.627 36.0575 267.627 39.4616L267.533 48.4382ZM265.342 41.4435L262.031 41.8865C261.207 41.9553 260.41 42.2105 259.699 42.6326C259.43 42.8734 259.22 43.1737 259.087 43.5095C258.953 43.8454 258.899 44.2077 258.93 44.5678C258.922 44.8742 258.98 45.1788 259.101 45.4605C259.221 45.7423 259.402 45.9945 259.629 46.1999C260.168 46.6377 260.848 46.8618 261.541 46.8294C262.044 46.8446 262.545 46.7502 263.008 46.553C263.471 46.3557 263.885 46.0602 264.223 45.687C264.949 44.9033 265.335 43.8635 265.295 42.7958L265.342 41.4435Z" fill="black"/>
<path d="M280.988 47.8085C279.847 48.465 278.549 48.7956 277.234 48.7644C276.365 48.7943 275.501 48.6393 274.697 48.3097C273.893 47.9801 273.168 47.4834 272.571 46.8525C271.961 46.1916 271.489 45.4166 271.181 44.5722C270.873 43.7279 270.735 42.8308 270.775 41.9329C270.725 40.9446 270.87 39.9562 271.202 39.024C271.534 38.0919 272.047 37.2343 272.71 36.5003C273.374 35.811 274.176 35.2714 275.065 34.9176C275.954 34.5637 276.908 34.4038 277.863 34.4485C278.966 34.4188 280.061 34.6505 281.058 35.1247V37.4562C280.111 36.761 278.968 36.3853 277.793 36.3837C277.147 36.3628 276.504 36.4858 275.912 36.7439C275.319 37.002 274.791 37.3886 274.366 37.8759C273.428 38.9771 272.944 40.3945 273.014 41.8396C272.935 43.2133 273.386 44.5648 274.273 45.6168C274.7 46.0822 275.224 46.4486 275.808 46.6903C276.392 46.9319 277.022 47.043 277.653 47.0157C278.881 47.006 280.071 46.5876 281.034 45.8266L280.988 47.8085Z" fill="black"/>
<path d="M290.64 48.322C290.001 48.6301 289.296 48.7744 288.588 48.7416C286.256 48.7416 284.997 47.4126 284.997 44.7313V36.6407H282.666V34.7755H284.997V31.418L287.189 30.7185V34.7755H290.64V36.6407H287.189V44.335C287.131 45.0283 287.294 45.7222 287.655 46.3168C287.857 46.5229 288.101 46.682 288.371 46.7828C288.641 46.8835 288.93 46.9235 289.217 46.8997C289.73 46.9048 290.23 46.7409 290.64 46.4334V48.322Z" fill="black"/>
<path d="M299.057 48.7647C298.163 48.8075 297.27 48.6591 296.438 48.3294C295.605 47.9998 294.853 47.4964 294.231 46.8528C293.606 46.1683 293.124 45.3665 292.811 44.4939C292.499 43.6214 292.363 42.6955 292.412 41.77C292.353 40.7918 292.489 39.8115 292.814 38.8867C293.138 37.9619 293.643 37.1111 294.301 36.384C294.969 35.7283 295.765 35.2179 296.64 34.8848C297.514 34.5518 298.449 34.4034 299.384 34.4488C300.27 34.3975 301.156 34.5399 301.982 34.866C302.807 35.1922 303.552 35.6943 304.163 36.3374C305.383 37.7951 306 39.663 305.889 41.5602C305.974 43.4851 305.305 45.3675 304.023 46.8062C303.381 47.4654 302.606 47.9808 301.75 48.3184C300.894 48.656 299.976 48.8081 299.057 48.7647ZM299.22 36.2908C298.592 36.2648 297.965 36.3813 297.388 36.6316C296.81 36.882 296.297 37.2596 295.886 37.7364C295.011 38.857 294.572 40.257 294.65 41.6767C294.571 43.0719 295.02 44.4457 295.909 45.5238C296.323 45.9877 296.835 46.3538 297.408 46.5957C297.98 46.8376 298.599 46.9493 299.22 46.9228C299.834 46.9605 300.447 46.856 301.014 46.6174C301.58 46.3788 302.083 46.0125 302.485 45.5472C303.319 44.4189 303.724 43.0301 303.627 41.6301C303.724 40.2229 303.319 38.8269 302.485 37.6897C302.088 37.2173 301.586 36.8446 301.019 36.6017C300.452 36.3587 299.836 36.2522 299.22 36.2908Z" fill="black"/>
<path d="M316.52 36.9901C316.033 36.6621 315.45 36.5061 314.865 36.5471C314.395 36.5533 313.935 36.6785 313.528 36.9109C313.12 37.1433 312.778 37.4754 312.533 37.8761C311.852 38.9448 311.525 40.2015 311.6 41.4667V48.4615H309.409V34.7751H311.6V37.5963C311.831 36.6946 312.327 35.8825 313.023 35.2647C313.617 34.7438 314.378 34.4541 315.168 34.4486C315.618 34.4325 316.068 34.4956 316.497 34.6352L316.52 36.9901Z" fill="black"/>
<path d="M331 34.7748L324.705 50.6295C323.586 53.4741 322 54.873 320.042 54.873C319.562 54.8889 319.083 54.8339 318.619 54.7098V52.7513C319.03 52.9014 319.464 52.9802 319.902 52.9844C320.474 52.9607 321.024 52.756 321.472 52.3999C321.92 52.0437 322.244 51.5545 322.396 51.0026L323.492 48.4145L318.13 34.7748H320.461L324.005 45.2203C324.06 45.5792 324.153 45.9311 324.285 46.2695L324.541 45.2436L328.668 34.7748H331Z" fill="black"/>
</g>
<defs>
<clipPath id="clip0_48_2616">
<rect width="331" height="83.6029" fill="white" transform="translate(0 0.916992)"/>
</clipPath>
</defs>
</svg>
