<svg width="178" height="64" viewBox="0 0 178 64" fill="none" xmlns="http://www.w3.org/2000/svg">
<g clip-path="url(#clip0_48_2788)">
<path d="M109.598 9.89258V53.5785H100.74V49.1222C99.816 50.6866 98.4807 51.9588 96.8609 52.7647C95.1227 53.6338 93.1553 54.0921 91.1878 54.0921C88.7543 54.1474 86.3286 53.4521 84.298 52.0694C82.212 50.6788 80.5923 48.7746 79.5493 46.5148C78.3957 43.9074 77.8111 41.1341 77.8743 38.2975C77.819 35.461 78.3957 32.6876 79.5493 30.1355C80.5923 27.939 82.212 26.0269 84.2348 24.6995C86.3207 23.3721 88.7464 22.7321 91.1799 22.7874C93.092 22.7874 94.9962 23.1904 96.6792 24.0595C98.299 24.8733 99.6343 26.0822 100.559 27.5913V12.8476L109.59 9.89258H109.598ZM98.9469 44.9583C100.1 43.457 100.74 41.2526 100.74 38.416C100.74 35.5795 100.164 33.4383 98.9469 31.937C97.7301 30.4358 95.818 29.5667 93.8585 29.622C91.8911 29.5034 89.979 30.3726 88.7069 31.8817C87.4901 33.3829 86.858 35.5242 86.858 38.3054C86.858 41.0867 87.498 43.3385 88.7069 44.903C89.9236 46.4674 91.8911 47.3365 93.8585 47.2733C96.055 47.2733 97.7933 46.4595 98.9469 44.9583ZM141.25 24.6442C143.336 25.9716 144.956 27.8837 145.936 30.0802C147.089 32.6244 147.674 35.4057 147.611 38.2422C147.666 41.0788 147.089 43.9153 145.936 46.4595C144.893 48.7192 143.273 50.6234 141.187 52.0141C139.164 53.3415 136.731 54.0368 134.305 53.9815C132.337 54.0368 130.37 53.5785 128.632 52.6541C127.012 51.8402 125.677 50.5681 124.816 49.0116V53.5232H115.903V12.8476L124.871 9.89258V27.7178C125.74 26.1533 127.067 24.8812 128.687 24.0753C130.425 23.1508 132.33 22.6847 134.297 22.7479C136.731 22.6926 139.156 23.3879 141.242 24.66L141.25 24.6442ZM136.849 44.895C138.066 43.3306 138.643 41.1341 138.643 38.2422C138.643 35.3504 138.066 33.3197 136.849 31.8185C135.632 30.3173 133.957 29.5588 131.761 29.5588C129.793 29.4402 127.881 30.3094 126.609 31.8738C125.392 33.4383 124.816 35.5795 124.816 38.3528C124.816 41.1262 125.392 43.3859 126.609 44.895C127.826 46.4595 129.73 47.3286 131.761 47.2101C133.728 47.3286 135.64 46.4595 136.849 44.895ZM160 30.1988H167.64V23.4827H160V13.5271L151.032 16.419V42.0664C151.032 45.8827 152.019 48.8378 153.987 50.9237C155.954 53.0096 158.791 54.0447 162.496 54.0447C164.235 54.1 165.965 53.8155 167.648 53.2309V46.2857C166.724 46.5148 165.681 46.6886 164.693 46.6886C163.421 46.7439 162.204 46.341 161.28 45.535C160.466 44.7844 160.008 43.5676 160.008 41.8926V30.2067L160 30.1988Z" fill="#262A38"/>
<path d="M61.282 2.66272C62.7832 4.10864 63.7709 6.02074 64 8.09877C64 8.9679 63.7709 9.54469 63.2494 10.643C62.7279 11.7412 56.3042 22.8504 54.3921 25.916C53.2938 27.7096 52.717 29.8509 52.717 31.9368C52.717 34.0227 53.2938 36.164 54.3921 37.9575C56.3042 41.0232 62.7279 52.1956 63.2494 53.2938C63.7709 54.3921 64 54.9136 64 55.7827C63.7709 57.8686 62.8464 59.7728 61.3373 61.1635C59.8914 62.6647 57.9793 63.6523 55.9565 63.8262C55.0874 63.8262 54.5106 63.597 53.4676 63.0756C52.4247 62.5541 41.0864 56.3042 38.0207 54.3921C37.7916 54.2736 37.5546 54.0998 37.2701 53.9891L22.1077 45.0212C22.4553 47.9131 23.7274 50.6943 25.8133 52.717C26.2163 53.12 26.6272 53.4677 27.0854 53.8153C26.7378 53.9891 26.3348 54.163 25.9872 54.3921C22.9215 56.3042 11.7491 62.7279 10.6509 63.2494C9.55259 63.7709 9.03111 64 8.10667 64C6.02074 63.7709 4.11654 62.8464 2.72593 61.3373C1.22469 59.8914 0.237037 57.9793 0.00790123 55.9012C0.0632099 55.0321 0.300247 54.163 0.758518 53.4123C1.28 52.3141 7.7037 41.1417 9.6158 38.076C10.7141 36.2825 11.2909 34.1965 11.2909 32.0553C11.2909 29.9141 10.7141 27.8281 9.6158 26.0346C7.6958 22.8583 1.21679 11.6859 0.750617 10.5877C0.284444 9.83704 0.0553086 8.9679 0 8.09877C0.229136 6.02074 1.15358 4.10864 2.66272 2.66272C4.10864 1.15358 6.02074 0.229136 8.09876 0C8.9679 0.0553086 9.83704 0.292346 10.643 0.750617C11.5674 1.15358 19.7294 5.90222 24.0672 8.44642L25.0548 9.02321C25.4025 9.25235 25.6948 9.42617 25.924 9.54469L26.3901 9.83704L41.837 18.9788C41.4894 15.5101 39.6958 12.3259 36.9146 10.1847C37.2622 10.0109 37.6652 9.83704 38.0128 9.6079C41.0785 7.6958 52.2509 1.21679 53.3491 0.750617C54.0997 0.284444 54.9689 0.0553086 55.8933 0C57.916 0.229136 59.8281 1.15358 61.2741 2.66272H61.282ZM32.8138 36.1086L36.1086 32.8138C36.5748 32.3477 36.5748 31.6602 36.1086 31.1941L32.8138 27.8993C32.3477 27.4331 31.6602 27.4331 31.1941 27.8993L27.8993 31.1941C27.4331 31.6602 27.4331 32.3477 27.8993 32.8138L31.1941 36.1086C31.597 36.5116 32.3477 36.5116 32.8138 36.1086ZM61.282 2.66272C62.7832 4.10864 63.7709 6.02074 64 8.09877C64 8.9679 63.7709 9.54469 63.2494 10.643C62.7279 11.7412 56.3042 22.8504 54.3921 25.916C53.2938 27.7096 52.717 29.8509 52.717 31.9368C52.717 34.0227 53.2938 36.164 54.3921 37.9575C56.3042 41.0232 62.7279 52.1956 63.2494 53.2938C63.7709 54.3921 64 54.9136 64 55.7827C63.7709 57.8686 62.8464 59.7728 61.3373 61.1635C59.8914 62.6647 57.9793 63.6523 55.9565 63.8262C55.0874 63.8262 54.5106 63.597 53.4676 63.0756C52.4247 62.5541 41.0864 56.3042 38.0207 54.3921C37.7916 54.2736 37.5546 54.0998 37.2701 53.9891L22.1077 45.0212C22.4553 47.9131 23.7274 50.6943 25.8133 52.717C26.2163 53.12 26.6272 53.4677 27.0854 53.8153C26.7378 53.9891 26.3348 54.163 25.9872 54.3921C22.9215 56.3042 11.7491 62.7279 10.6509 63.2494C9.55259 63.7709 9.03111 64 8.10667 64C6.02074 63.7709 4.11654 62.8464 2.72593 61.3373C1.22469 59.8914 0.237037 57.9793 0.00790123 55.9012C0.0632099 55.0321 0.300247 54.163 0.758518 53.4123C1.28 52.3141 7.7037 41.1417 9.6158 38.076C10.7141 36.2825 11.2909 34.1965 11.2909 32.0553C11.2909 29.9141 10.7141 27.8281 9.6158 26.0346C7.6958 22.8583 1.21679 11.6859 0.750617 10.5877C0.284444 9.83704 0.0553086 8.9679 0 8.09877C0.229136 6.02074 1.15358 4.10864 2.66272 2.66272C4.10864 1.15358 6.02074 0.229136 8.09876 0C8.9679 0.0553086 9.83704 0.292346 10.643 0.750617C11.5674 1.15358 19.7294 5.90222 24.0672 8.44642L25.0548 9.02321C25.4025 9.25235 25.6948 9.42617 25.924 9.54469L26.3901 9.83704L41.837 18.9788C41.4894 15.5101 39.6958 12.3259 36.9146 10.1847C37.2622 10.0109 37.6652 9.83704 38.0128 9.6079C41.0785 7.6958 52.2509 1.21679 53.3491 0.750617C54.0997 0.284444 54.9689 0.0553086 55.8933 0C57.916 0.229136 59.8281 1.15358 61.2741 2.66272H61.282ZM32.8138 36.1086L36.1086 32.8138C36.5748 32.3477 36.5748 31.6602 36.1086 31.1941L32.8138 27.8993C32.3477 27.4331 31.6602 27.4331 31.1941 27.8993L27.8993 31.1941C27.4331 31.6602 27.4331 32.3477 27.8993 32.8138L31.1941 36.1086C31.597 36.5116 32.3477 36.5116 32.8138 36.1086Z" fill="#FF694A"/>
<path d="M175.534 50.8537L174.578 53.5243H174.23L173.274 50.8537V53.5243H172.666V49.8818H173.425L174.404 52.592L175.384 49.8818H176.143V53.5243H175.534V50.8537Z" fill="#262A38"/>
<path d="M172.129 50.427H171.125V53.5243H170.509V50.427H169.505V49.8818H172.129V50.427Z" fill="#262A38"/>
</g>
<defs>
<clipPath id="clip0_48_2788">
<rect width="176.198" height="64" fill="white"/>
</clipPath>
</defs>
</svg>
